<?xml version="1.0" encoding="UTF-8"?>
<!DOCTYPE svg PUBLIC "-//W3C//DTD SVG 1.1//EN" "http://www.w3.org/Graphics/SVG/1.1/DTD/svg11.dtd">
<svg xmlns="http://www.w3.org/2000/svg" version="1.1" width="323px" height="309px" style="shape-rendering:geometricPrecision; text-rendering:geometricPrecision; image-rendering:optimizeQuality; fill-rule:evenodd; clip-rule:evenodd" xmlns:xlink="http://www.w3.org/1999/xlink">
<g><path style="opacity:1" fill="#c4c6cb" d="M 160.5,20.5 C 163.167,20.5 165.833,20.5 168.5,20.5C 169.682,31.5461 171.015,42.5461 172.5,53.5C 171.312,52.3157 170.145,52.3157 169,53.5C 168.009,52.0611 166.676,51.0611 165,50.5C 164.888,47.5529 163.388,46.2196 160.5,46.5C 160.5,45.1667 160.5,43.8333 160.5,42.5C 159.448,42.6495 158.448,42.4828 157.5,42C 156.667,39.8333 155.167,38.3333 153,37.5C 152.764,34.7916 151.931,32.2916 150.5,30C 151.022,29.0497 151.689,28.2164 152.5,27.5C 148.379,27.0411 144.712,25.5411 141.5,23C 147.977,22.1379 154.311,21.3046 160.5,20.5 Z"/></g>
<g><path style="opacity:1" fill="#dddee2" d="M 208.5,21.5 C 207.395,23.3 208.061,24.4666 210.5,25C 208.5,25.3333 206.5,25.6667 204.5,26C 207.723,26.9381 209.056,29.1048 208.5,32.5C 211.231,33.0271 213.898,33.8604 216.5,35C 215.328,35.4186 214.328,36.0853 213.5,37C 215.851,39.0662 218.351,40.8996 221,42.5C 225.772,37.5707 229.939,32.2374 233.5,26.5C 235.174,25.1199 236.84,23.7866 238.5,22.5C 241.337,23.9057 244.337,24.7391 247.5,25C 246.167,25.3333 244.833,25.6667 243.5,26C 246.611,27.4513 249.444,29.2846 252,31.5C 252.374,32.4162 252.874,33.2496 253.5,34C 253.507,35.5827 253.174,37.2494 252.5,39C 253.563,40.1882 254.897,40.6882 256.5,40.5C 256.337,42.8568 256.503,45.1902 257,47.5C 257.561,48.0219 258.228,48.3552 259,48.5C 261.2,47.1332 262.7,45.1332 263.5,42.5C 264.325,41.6143 265.325,41.281 266.5,41.5C 266.5,40.5 266.5,39.5 266.5,38.5C 267.978,38.762 269.311,38.4287 270.5,37.5C 273.282,33.569 276.282,29.9023 279.5,26.5C 275.299,39.6004 266.965,48.9337 254.5,54.5C 251.082,53.8118 247.749,52.8118 244.5,51.5C 243.694,47.091 241.028,45.091 236.5,45.5C 236.5,42.1667 234.833,40.5 231.5,40.5C 231.5,39.1667 231.5,37.8333 231.5,36.5C 230.127,36.3433 228.793,36.51 227.5,37C 223.543,42.8846 218.876,48.2179 213.5,53C 211.803,53.3845 210.137,53.2178 208.5,52.5C 208.5,50.5 208.5,48.5 208.5,46.5C 205.482,46.6646 202.482,46.498 199.5,46C 197.395,43.7647 195.229,41.5981 193,39.5C 192.501,34.5111 192.334,29.5111 192.5,24.5C 188.154,24.6657 183.821,24.499 179.5,24C 181.878,23.0255 181.544,22.3589 178.5,22C 188.494,21.5002 198.494,21.3335 208.5,21.5 Z"/></g>
<g><path style="opacity:1" fill="#e3e3e6" d="M 250.5,19.5 C 260.681,19.1726 270.681,19.506 280.5,20.5C 280.675,22.6208 280.341,24.6208 279.5,26.5C 276.282,29.9023 273.282,33.569 270.5,37.5C 269.311,38.4287 267.978,38.762 266.5,38.5C 266.5,39.5 266.5,40.5 266.5,41.5C 265.325,41.281 264.325,41.6143 263.5,42.5C 262.7,45.1332 261.2,47.1332 259,48.5C 258.228,48.3552 257.561,48.0219 257,47.5C 256.503,45.1902 256.337,42.8568 256.5,40.5C 254.897,40.6882 253.563,40.1882 252.5,39C 253.174,37.2494 253.507,35.5827 253.5,34C 252.874,33.2496 252.374,32.4162 252,31.5C 249.444,29.2846 246.611,27.4513 243.5,26C 244.833,25.6667 246.167,25.3333 247.5,25C 244.337,24.7391 241.337,23.9057 238.5,22.5C 236.84,23.7866 235.174,25.1199 233.5,26.5C 229.939,32.2374 225.772,37.5707 221,42.5C 218.351,40.8996 215.851,39.0662 213.5,37C 214.328,36.0853 215.328,35.4186 216.5,35C 213.898,33.8604 211.231,33.0271 208.5,32.5C 209.056,29.1048 207.723,26.9381 204.5,26C 206.5,25.6667 208.5,25.3333 210.5,25C 208.061,24.4666 207.395,23.3 208.5,21.5C 226.503,21.6666 244.503,21.4999 262.5,21C 258.312,20.8238 254.312,20.3238 250.5,19.5 Z"/></g>
<g><path style="opacity:1" fill="#b8bdc2" d="M 124.5,22.5 C 124.196,23.1499 123.863,23.8165 123.5,24.5C 125.108,25.2421 126.775,25.4087 128.5,25C 128.167,25.3333 127.833,25.6667 127.5,26C 130.049,28.2585 131.716,31.0919 132.5,34.5C 135.932,38.0569 139.932,40.8902 144.5,43C 143.833,43.6667 143.167,44.3333 142.5,45C 144.477,47.4278 146.81,49.4278 149.5,51C 148.833,51.3333 148.167,51.6667 147.5,52C 149.5,52.6667 150.833,54 151.5,56C 149.51,57.7506 147.177,58.7506 144.5,59C 155.161,59.4998 165.828,59.6665 176.5,59.5C 181.167,59.5 185.833,59.5 190.5,59.5C 209.19,59.7675 227.857,59.4342 246.5,58.5C 246.5,58.8333 246.5,59.1667 246.5,59.5C 209.176,60.1864 171.842,60.8531 134.5,61.5C 133.761,61.631 133.094,61.4643 132.5,61C 133.167,59.6667 134.167,58.6667 135.5,58C 132.057,57.7787 131.724,56.7787 134.5,55C 132.423,54.8078 130.423,54.3078 128.5,53.5C 129.415,52.6721 130.081,51.6721 130.5,50.5C 129.622,47.8702 128.955,45.2035 128.5,42.5C 127.5,42.5 126.5,42.5 125.5,42.5C 125.307,38.551 124.807,38.551 124,42.5C 123,40.1667 121.333,38.5 119,37.5C 118.64,35.5789 117.806,33.9122 116.5,32.5C 115.5,31.1667 114.5,31.1667 113.5,32.5C 111.519,31.8946 111.185,30.8946 112.5,29.5C 111.349,28.269 110.183,28.269 109,29.5C 108.583,28.244 107.75,27.5774 106.5,27.5C 112.151,24.9181 118.151,23.2515 124.5,22.5 Z"/></g>
<g><path style="opacity:1" fill="#bfc3c8" d="M 138.5,20.5 C 145.833,20.5 153.167,20.5 160.5,20.5C 154.311,21.3046 147.977,22.1379 141.5,23C 144.712,25.5411 148.379,27.0411 152.5,27.5C 151.689,28.2164 151.022,29.0497 150.5,30C 151.931,32.2916 152.764,34.7916 153,37.5C 155.167,38.3333 156.667,39.8333 157.5,42C 158.448,42.4828 159.448,42.6495 160.5,42.5C 160.5,43.8333 160.5,45.1667 160.5,46.5C 163.388,46.2196 164.888,47.5529 165,50.5C 166.676,51.0611 168.009,52.0611 169,53.5C 170.145,52.3157 171.312,52.3157 172.5,53.5C 174.73,54.775 176.063,56.775 176.5,59.5C 165.828,59.6665 155.161,59.4998 144.5,59C 147.177,58.7506 149.51,57.7506 151.5,56C 150.833,54 149.5,52.6667 147.5,52C 148.167,51.6667 148.833,51.3333 149.5,51C 146.81,49.4278 144.477,47.4278 142.5,45C 143.167,44.3333 143.833,43.6667 144.5,43C 139.932,40.8902 135.932,38.0569 132.5,34.5C 131.716,31.0919 130.049,28.2585 127.5,26C 127.833,25.6667 128.167,25.3333 128.5,25C 126.775,25.4087 125.108,25.2421 123.5,24.5C 123.863,23.8165 124.196,23.1499 124.5,22.5C 128.881,20.7895 133.547,20.1228 138.5,20.5 Z"/></g>
<g><path style="opacity:1" fill="#d6d9dc" d="M 138.5,20.5 C 175.663,19.5015 212.996,19.1682 250.5,19.5C 254.312,20.3238 258.312,20.8238 262.5,21C 244.503,21.4999 226.503,21.6666 208.5,21.5C 198.494,21.3335 188.494,21.5002 178.5,22C 181.544,22.3589 181.878,23.0255 179.5,24C 183.821,24.499 188.154,24.6657 192.5,24.5C 192.334,29.5111 192.501,34.5111 193,39.5C 195.229,41.5981 197.395,43.7647 199.5,46C 202.482,46.498 205.482,46.6646 208.5,46.5C 208.5,48.5 208.5,50.5 208.5,52.5C 207.411,54.1171 205.744,54.9504 203.5,55C 204.167,55.6667 204.833,56.3333 205.5,57C 200.067,56.8816 195.067,57.7149 190.5,59.5C 185.833,59.5 181.167,59.5 176.5,59.5C 176.063,56.775 174.73,54.775 172.5,53.5C 171.015,42.5461 169.682,31.5461 168.5,20.5C 165.833,20.5 163.167,20.5 160.5,20.5C 153.167,20.5 145.833,20.5 138.5,20.5 Z"/></g>
<g><path style="opacity:1" fill="#b2b7bd" d="M 106.5,27.5 C 107.75,27.5774 108.583,28.244 109,29.5C 110.183,28.269 111.349,28.269 112.5,29.5C 111.185,30.8946 111.519,31.8946 113.5,32.5C 114.5,31.1667 115.5,31.1667 116.5,32.5C 117.806,33.9122 118.64,35.5789 119,37.5C 121.333,38.5 123,40.1667 124,42.5C 124.807,38.551 125.307,38.551 125.5,42.5C 126.5,42.5 127.5,42.5 128.5,42.5C 128.955,45.2035 129.622,47.8702 130.5,50.5C 130.081,51.6721 129.415,52.6721 128.5,53.5C 130.423,54.3078 132.423,54.8078 134.5,55C 131.724,56.7787 132.057,57.7787 135.5,58C 134.167,58.6667 133.167,59.6667 132.5,61C 133.094,61.4643 133.761,61.631 134.5,61.5C 134.5,61.8333 134.5,62.1667 134.5,62.5C 130.677,64.0705 126.677,65.0705 122.5,65.5C 120.473,65.6621 118.473,65.4955 116.5,65C 117.623,63.9563 118.956,63.2896 120.5,63C 116.957,62.1934 113.623,60.8601 110.5,59C 110.833,58.6667 111.167,58.3333 111.5,58C 104.38,52.5591 99.213,45.7257 96,37.5C 95.6667,38.1667 95.3333,38.8333 95,39.5C 90.8661,38.2602 86.6994,38.2602 82.5,39.5C 89.7862,34.2485 97.7862,30.2485 106.5,27.5 Z"/></g>
<g><path style="opacity:1" fill="#d6d8dc" d="M 254.5,54.5 C 252.151,56.341 249.485,57.6743 246.5,58.5C 227.857,59.4342 209.19,59.7675 190.5,59.5C 195.067,57.7149 200.067,56.8816 205.5,57C 204.833,56.3333 204.167,55.6667 203.5,55C 205.744,54.9504 207.411,54.1171 208.5,52.5C 210.137,53.2178 211.803,53.3845 213.5,53C 218.876,48.2179 223.543,42.8846 227.5,37C 228.793,36.51 230.127,36.3433 231.5,36.5C 231.5,37.8333 231.5,39.1667 231.5,40.5C 234.833,40.5 236.5,42.1667 236.5,45.5C 241.028,45.091 243.694,47.091 244.5,51.5C 247.749,52.8118 251.082,53.8118 254.5,54.5 Z"/></g>
<g><path style="opacity:1" fill="#abb1b7" d="M 122.5,65.5 C 112.544,69.1477 103.878,74.8144 96.5,82.5C 95.5266,82.0133 94.5266,81.5133 93.5,81C 95.4257,80.5776 96.4257,79.4109 96.5,77.5C 99.5766,76.6266 101.91,74.7932 103.5,72C 101.36,71.0267 99.6933,69.5267 98.5,67.5C 99.376,66.7492 100.376,66.2492 101.5,66C 99.8876,65.2797 98.3876,65.4464 97,66.5C 96.5667,64.3365 97.0667,62.3365 98.5,60.5C 95.8154,57.8103 93.4821,54.8103 91.5,51.5C 87.7457,50.254 84.0791,48.754 80.5,47C 79.4158,44.1751 78.2492,44.0085 77,46.5C 76.5488,44.0712 75.7155,43.9045 74.5,46C 74.9574,46.414 75.2907,46.914 75.5,47.5C 73.6522,50.538 71.3189,52.8713 68.5,54.5C 67.8485,53.9094 67.1818,53.2427 66.5,52.5C 65.5832,53.1272 64.5832,53.4606 63.5,53.5C 66.9743,50.1983 70.641,47.0316 74.5,44C 77.0594,42.2226 79.7261,40.7226 82.5,39.5C 86.6994,38.2602 90.8661,38.2602 95,39.5C 95.3333,38.8333 95.6667,38.1667 96,37.5C 99.213,45.7257 104.38,52.5591 111.5,58C 111.167,58.3333 110.833,58.6667 110.5,59C 113.623,60.8601 116.957,62.1934 120.5,63C 118.956,63.2896 117.623,63.9563 116.5,65C 118.473,65.4955 120.473,65.6621 122.5,65.5 Z"/></g>
<g><path style="opacity:1" fill="#a5abb3" d="M 96.5,77.5 C 94.9153,77.0146 93.4153,77.6812 92,79.5C 89.8762,78.3783 88.0429,76.8783 86.5,75C 89.0317,74.3878 89.8651,72.8878 89,70.5C 88.6667,71.1667 88.3333,71.8333 88,72.5C 85.913,71.2062 83.7463,70.0395 81.5,69C 78.7451,62.7454 74.4118,57.9121 68.5,54.5C 71.3189,52.8713 73.6522,50.538 75.5,47.5C 75.2907,46.914 74.9574,46.414 74.5,46C 75.7155,43.9045 76.5488,44.0712 77,46.5C 78.2492,44.0085 79.4158,44.1751 80.5,47C 84.0791,48.754 87.7457,50.254 91.5,51.5C 93.4821,54.8103 95.8154,57.8103 98.5,60.5C 97.0667,62.3365 96.5667,64.3365 97,66.5C 98.3876,65.4464 99.8876,65.2797 101.5,66C 100.376,66.2492 99.376,66.7492 98.5,67.5C 99.6933,69.5267 101.36,71.0267 103.5,72C 101.91,74.7932 99.5766,76.6266 96.5,77.5 Z"/></g>
<g><path style="opacity:1" fill="#7a8089" d="M 280.5,20.5 C 281.5,20.5 282.5,20.5 283.5,20.5C 282.174,42.5291 271.508,57.8624 251.5,66.5C 253.062,65.0244 254.729,63.5244 256.5,62C 253.502,59.1925 254.169,57.8591 258.5,58C 254.389,57.535 250.389,58.035 246.5,59.5C 246.5,59.1667 246.5,58.8333 246.5,58.5C 249.485,57.6743 252.151,56.341 254.5,54.5C 266.965,48.9337 275.299,39.6004 279.5,26.5C 280.341,24.6208 280.675,22.6208 280.5,20.5 Z"/></g>
<g><path style="opacity:0.004" fill="#fefffe" d="M 35.5,58.5 C 36.8333,59.1667 36.8333,59.1667 35.5,58.5 Z"/></g>
<g><path style="opacity:1" fill="#546170" d="M 134.5,62.5 C 168.502,62.3333 202.502,62.5 236.5,63C 231.19,65.5014 225.523,66.8347 219.5,67C 192.637,67.1796 165.803,67.6796 139,68.5C 138.127,68.2645 137.293,67.9312 136.5,67.5C 132.06,69.412 127.393,70.5786 122.5,71C 120.884,71.6152 119.551,72.6152 118.5,74C 119.167,74.3333 119.833,74.6667 120.5,75C 116.695,75.5343 113.029,76.5343 109.5,78C 110.863,80.1293 110.529,80.6293 108.5,79.5C 108.141,80.9172 106.975,82.2505 105,83.5C 104.667,83.1667 104.333,82.8333 104,82.5C 103.517,83.448 103.351,84.448 103.5,85.5C 101.473,85.6621 99.4727,85.4955 97.5,85C 96.944,84.6174 96.6107,84.1174 96.5,83.5C 96.5,83.1667 96.5,82.8333 96.5,82.5C 103.878,74.8144 112.544,69.1477 122.5,65.5C 126.677,65.0705 130.677,64.0705 134.5,62.5 Z"/></g>
<g><path style="opacity:1" fill="#616873" d="M 251.5,66.5 C 246.59,69.0683 241.257,70.0683 235.5,69.5C 204.995,69.1685 174.662,69.5019 144.5,70.5C 111.479,75.167 88.1455,92.8337 74.5,123.5C 73.6618,123.158 73.3284,122.492 73.5,121.5C 73.5,120.5 73.5,119.5 73.5,118.5C 75.0277,115.251 76.3611,111.918 77.5,108.5C 78.9488,106.389 79.9488,104.056 80.5,101.5C 84.4537,94.2487 89.787,88.2487 96.5,83.5C 96.6107,84.1174 96.944,84.6174 97.5,85C 99.4727,85.4955 101.473,85.6621 103.5,85.5C 103.351,84.448 103.517,83.448 104,82.5C 104.333,82.8333 104.667,83.1667 105,83.5C 106.975,82.2505 108.141,80.9172 108.5,79.5C 110.529,80.6293 110.863,80.1293 109.5,78C 113.029,76.5343 116.695,75.5343 120.5,75C 119.833,74.6667 119.167,74.3333 118.5,74C 119.551,72.6152 120.884,71.6152 122.5,71C 127.393,70.5786 132.06,69.412 136.5,67.5C 137.293,67.9312 138.127,68.2645 139,68.5C 165.803,67.6796 192.637,67.1796 219.5,67C 225.523,66.8347 231.19,65.5014 236.5,63C 202.502,62.5 168.502,62.3333 134.5,62.5C 134.5,62.1667 134.5,61.8333 134.5,61.5C 171.842,60.8531 209.176,60.1864 246.5,59.5C 250.389,58.035 254.389,57.535 258.5,58C 254.169,57.8591 253.502,59.1925 256.5,62C 254.729,63.5244 253.062,65.0244 251.5,66.5 Z"/></g>
<g><path style="opacity:1" fill="#9da4ac" d="M 68.5,54.5 C 74.4118,57.9121 78.7451,62.7454 81.5,69C 83.7463,70.0395 85.913,71.2062 88,72.5C 88.3333,71.8333 88.6667,71.1667 89,70.5C 89.8651,72.8878 89.0317,74.3878 86.5,75C 88.0429,76.8783 89.8762,78.3783 92,79.5C 93.4153,77.6812 94.9153,77.0146 96.5,77.5C 96.4257,79.4109 95.4257,80.5776 93.5,81C 94.5266,81.5133 95.5266,82.0133 96.5,82.5C 96.5,82.8333 96.5,83.1667 96.5,83.5C 89.787,88.2487 84.4537,94.2487 80.5,101.5C 79.5028,101.53 78.8361,101.03 78.5,100C 79.2887,98.3745 80.2887,96.8745 81.5,95.5C 81.1667,95.1667 80.8333,94.8333 80.5,94.5C 79.147,95.6853 77.9803,97.0186 77,98.5C 76.7132,96.1093 76.2132,93.7759 75.5,91.5C 78.5701,88.3256 78.0701,85.9922 74,84.5C 71.9403,85.5901 70.607,87.2567 70,89.5C 68.2352,86.527 65.7352,84.3604 62.5,83C 63.1667,82.6667 63.8333,82.3333 64.5,82C 60.4765,78.7868 58.4765,74.6201 58.5,69.5C 55.6545,69.8087 54.1545,71.4754 54,74.5C 53.8775,70.9055 52.0442,69.2388 48.5,69.5C 52.7949,63.5374 57.7949,58.204 63.5,53.5C 64.5832,53.4606 65.5832,53.1272 66.5,52.5C 67.1818,53.2427 67.8485,53.9094 68.5,54.5 Z"/></g>
<g><path style="opacity:0.161" fill="#979a9e" d="M 144.5,70.5 C 174.662,69.5019 204.995,69.1685 235.5,69.5C 205.199,70.8272 174.866,71.1606 144.5,70.5 Z"/></g>
<g><path style="opacity:1" fill="#979ea6" d="M 48.5,69.5 C 52.0442,69.2388 53.8775,70.9055 54,74.5C 54.1545,71.4754 55.6545,69.8087 58.5,69.5C 58.4765,74.6201 60.4765,78.7868 64.5,82C 63.8333,82.3333 63.1667,82.6667 62.5,83C 65.7352,84.3604 68.2352,86.527 70,89.5C 70.607,87.2567 71.9403,85.5901 74,84.5C 78.0701,85.9922 78.5701,88.3256 75.5,91.5C 76.2132,93.7759 76.7132,96.1093 77,98.5C 77.9803,97.0186 79.147,95.6853 80.5,94.5C 80.8333,94.8333 81.1667,95.1667 81.5,95.5C 80.2887,96.8745 79.2887,98.3745 78.5,100C 78.8361,101.03 79.5028,101.53 80.5,101.5C 79.9488,104.056 78.9488,106.389 77.5,108.5C 76.5416,108.953 75.7083,109.619 75,110.5C 72.6157,106.107 69.449,102.274 65.5,99C 65.9574,98.586 66.2907,98.086 66.5,97.5C 64.2975,95.7046 63.1308,93.3712 63,90.5C 62.5988,92.5212 61.4321,93.8545 59.5,94.5C 57.8888,93.6798 57.2222,92.3464 57.5,90.5C 56.325,90.719 55.325,90.3857 54.5,89.5C 52.02,86.6391 51.02,83.3058 51.5,79.5C 50.5,79.5 49.5,79.5 48.5,79.5C 48.5542,83.7804 46.5542,86.1137 42.5,86.5C 42.5,87.5 42.5,88.5 42.5,89.5C 40.4086,89.3184 38.4086,89.6518 36.5,90.5C 35.5147,92.772 34.6813,95.1053 34,97.5C 33.7216,96.5842 33.2216,95.9175 32.5,95.5C 36.3321,85.8213 41.6654,77.1546 48.5,69.5 Z"/></g>
<g><path style="opacity:0.004" fill="#fefffe" d="M 300.5,74.5 C 301.833,75.1667 301.833,75.1667 300.5,74.5 Z"/></g>
<g><path style="opacity:0.004" fill="#fefffe" d="M 269.5,75.5 C 270.833,76.1667 270.833,76.1667 269.5,75.5 Z"/></g>
<g><path style="opacity:1" fill="#939aa4" d="M 77.5,108.5 C 76.3611,111.918 75.0277,115.251 73.5,118.5C 72.1497,119.483 71.1497,120.816 70.5,122.5C 69.9328,119.788 69.5995,117.121 69.5,114.5C 67.6139,123.576 66.4472,123.576 66,114.5C 65.2747,116.158 64.108,116.658 62.5,116C 64.158,115.275 64.658,114.108 64,112.5C 59,108.5 54,104.5 49,100.5C 49.2943,97.2433 48.7943,93.91 47.5,90.5C 46.1166,93.0756 45.2833,92.7423 45,89.5C 44.2303,90.5981 43.397,90.5981 42.5,89.5C 42.5,88.5 42.5,87.5 42.5,86.5C 46.5542,86.1137 48.5542,83.7804 48.5,79.5C 49.5,79.5 50.5,79.5 51.5,79.5C 51.02,83.3058 52.02,86.6391 54.5,89.5C 55.325,90.3857 56.325,90.719 57.5,90.5C 57.2222,92.3464 57.8888,93.6798 59.5,94.5C 61.4321,93.8545 62.5988,92.5212 63,90.5C 63.1308,93.3712 64.2975,95.7046 66.5,97.5C 66.2907,98.086 65.9574,98.586 65.5,99C 69.449,102.274 72.6157,106.107 75,110.5C 75.7083,109.619 76.5416,108.953 77.5,108.5 Z"/></g>
<g><path style="opacity:1" fill="#8c949e" d="M 42.5,89.5 C 43.397,90.5981 44.2303,90.5981 45,89.5C 45.2833,92.7423 46.1166,93.0756 47.5,90.5C 48.7943,93.91 49.2943,97.2433 49,100.5C 54,104.5 59,108.5 64,112.5C 64.658,114.108 64.158,115.275 62.5,116C 64.108,116.658 65.2747,116.158 66,114.5C 66.4472,123.576 67.6139,123.576 69.5,114.5C 69.5995,117.121 69.9328,119.788 70.5,122.5C 71.1497,120.816 72.1497,119.483 73.5,118.5C 73.5,119.5 73.5,120.5 73.5,121.5C 70.2622,122.748 66.7622,123.415 63,123.5C 50.6062,122.659 38.2728,121.326 26,119.5C 24.9889,120.056 24.1556,120.722 23.5,121.5C 24.2798,115.658 25.7798,109.991 28,104.5C 29.0399,101.177 30.5399,98.1766 32.5,95.5C 33.2216,95.9175 33.7216,96.5842 34,97.5C 34.6813,95.1053 35.5147,92.772 36.5,90.5C 38.4086,89.6518 40.4086,89.3184 42.5,89.5 Z"/></g>
<g><path style="opacity:1" fill="#b2b5bc" d="M 212.5,92.5 C 211.833,102.674 211.167,113.008 210.5,123.5C 206.594,120.766 204.094,117.1 203,112.5C 198.99,108.48 195.99,103.813 194,98.5C 191.591,96.5838 189.424,94.5838 187.5,92.5C 181.824,92.3339 176.157,92.5006 170.5,93C 164.408,96.0793 158.408,99.246 152.5,102.5C 150.973,102.427 149.973,103.094 149.5,104.5C 145.844,106.321 142.177,107.987 138.5,109.5C 128.653,112.028 118.986,114.862 109.5,118C 106.385,118.87 103.385,119.036 100.5,118.5C 109.668,104.859 122.335,96.026 138.5,92C 162.451,89.7112 186.451,89.0445 210.5,90C 211.756,90.4169 212.423,91.2502 212.5,92.5 Z"/></g>
<g><path style="opacity:1" fill="#979ea6" d="M 210.5,154.5 C 210.557,155.609 210.89,156.609 211.5,157.5C 210.503,157.47 209.836,157.97 209.5,159C 208.986,162.611 207.653,165.778 205.5,168.5C 204.25,168.423 203.417,167.756 203,166.5C 202.206,163.529 201.539,160.529 201,157.5C 200.309,159.891 199.309,159.891 198,157.5C 197.772,154.066 196.105,151.066 193,148.5C 192.505,146.527 192.338,144.527 192.5,142.5C 189.488,141.745 186.822,140.412 184.5,138.5C 184.5,137.167 184.5,135.833 184.5,134.5C 181.75,134.382 179.75,133.049 178.5,130.5C 176.166,126.646 173.999,122.646 172,118.5C 167.434,115.453 164.268,111.453 162.5,106.5C 160.508,106.672 158.842,106.005 157.5,104.5C 154.947,104.945 152.28,104.945 149.5,104.5C 149.973,103.094 150.973,102.427 152.5,102.5C 157.012,101.328 161.345,99.6609 165.5,97.5C 165.833,97.8333 166.167,98.1667 166.5,98.5C 162.39,101.7 162.89,102.7 168,101.5C 168.456,102.744 167.956,103.577 166.5,104C 169.043,104.14 171.377,104.806 173.5,106C 172.552,106.483 171.552,106.649 170.5,106.5C 170.351,107.552 170.517,108.552 171,109.5C 173.428,110.914 175.261,112.914 176.5,115.5C 175.271,116.281 173.938,116.781 172.5,117C 173.667,118.167 174.833,119.333 176,120.5C 176.656,116.998 177.989,116.998 180,120.5C 180.333,120.167 180.667,119.833 181,119.5C 182.766,123.262 184.599,126.929 186.5,130.5C 192.52,131.688 196.02,135.355 197,141.5C 200.051,144.453 202.885,147.453 205.5,150.5C 206.615,152.489 206.282,154.322 204.5,156C 205.692,158.055 205.692,160.055 204.5,162C 205,162.5 205.5,163 206,163.5C 206.915,160.119 208.415,157.119 210.5,154.5 Z"/></g>
<g><path style="opacity:1" fill="#929ba4" d="M 149.5,104.5 C 152.28,104.945 154.947,104.945 157.5,104.5C 158.842,106.005 160.508,106.672 162.5,106.5C 164.268,111.453 167.434,115.453 172,118.5C 173.999,122.646 176.166,126.646 178.5,130.5C 179.75,133.049 181.75,134.382 184.5,134.5C 184.5,135.833 184.5,137.167 184.5,138.5C 186.822,140.412 189.488,141.745 192.5,142.5C 192.338,144.527 192.505,146.527 193,148.5C 196.105,151.066 197.772,154.066 198,157.5C 199.309,159.891 200.309,159.891 201,157.5C 201.539,160.529 202.206,163.529 203,166.5C 203.417,167.756 204.25,168.423 205.5,168.5C 204.331,171.511 202.664,174.178 200.5,176.5C 201.221,172.739 201.388,169.072 201,165.5C 199.951,166.517 198.784,166.684 197.5,166C 196.751,164.266 196.251,162.433 196,160.5C 194.167,159.333 192.333,158.167 190.5,157C 187.917,151.42 183.584,148.087 177.5,147C 177.833,146.667 178.167,146.333 178.5,146C 177.132,144.66 175.799,143.326 174.5,142C 173.972,137.808 172.138,134.308 169,131.5C 168.804,133.286 167.971,134.619 166.5,135.5C 166.167,135.167 165.833,134.833 165.5,134.5C 166.415,133.672 167.081,132.672 167.5,131.5C 167.267,130.068 166.6,129.568 165.5,130C 164.156,132.839 163.822,135.673 164.5,138.5C 162.859,136.797 161.859,134.63 161.5,132C 139.169,131.5 116.836,131.333 94.5,131.5C 94.4021,129.447 95.0687,127.78 96.5,126.5C 96.5,127.5 96.5,128.5 96.5,129.5C 107.167,129.5 117.833,129.5 128.5,129.5C 139.868,129.424 151.201,128.757 162.5,127.5C 159.618,125.718 159.285,123.885 161.5,122C 160.663,120.989 160.33,119.822 160.5,118.5C 157.05,119.244 155.384,117.91 155.5,114.5C 151.33,114.312 148.663,112.312 147.5,108.5C 144.482,108.704 141.482,109.037 138.5,109.5C 142.177,107.987 145.844,106.321 149.5,104.5 Z"/></g>
<g><path style="opacity:1" fill="#9ca2aa" d="M 187.5,92.5 C 184.285,94.8559 180.619,96.3559 176.5,97C 176.146,98.6255 176.146,100.459 176.5,102.5C 180.756,101.981 184.423,103.147 187.5,106C 186.062,106.219 184.729,106.719 183.5,107.5C 184.315,109.276 185.482,109.943 187,109.5C 188.009,111.025 188.509,112.692 188.5,114.5C 189.5,114.5 190.5,114.5 191.5,114.5C 191.779,117.118 192.446,119.618 193.5,122C 197.062,123.877 200.395,126.21 203.5,129C 205.167,129.333 206.833,129.667 208.5,130C 207.5,130.333 206.5,130.667 205.5,131C 206.5,133.333 207.5,135.667 208.5,138C 208.043,138.414 207.709,138.914 207.5,139.5C 208.274,143.779 208.774,148.113 209,152.5C 209.333,152.167 209.667,151.833 210,151.5C 210.483,152.448 210.649,153.448 210.5,154.5C 208.415,157.119 206.915,160.119 206,163.5C 205.5,163 205,162.5 204.5,162C 205.692,160.055 205.692,158.055 204.5,156C 206.282,154.322 206.615,152.489 205.5,150.5C 202.885,147.453 200.051,144.453 197,141.5C 196.02,135.355 192.52,131.688 186.5,130.5C 184.599,126.929 182.766,123.262 181,119.5C 180.667,119.833 180.333,120.167 180,120.5C 177.989,116.998 176.656,116.998 176,120.5C 174.833,119.333 173.667,118.167 172.5,117C 173.938,116.781 175.271,116.281 176.5,115.5C 175.261,112.914 173.428,110.914 171,109.5C 170.517,108.552 170.351,107.552 170.5,106.5C 171.552,106.649 172.552,106.483 173.5,106C 171.377,104.806 169.043,104.14 166.5,104C 167.956,103.577 168.456,102.744 168,101.5C 162.89,102.7 162.39,101.7 166.5,98.5C 166.167,98.1667 165.833,97.8333 165.5,97.5C 161.345,99.6609 157.012,101.328 152.5,102.5C 158.408,99.246 164.408,96.0793 170.5,93C 176.157,92.5006 181.824,92.3339 187.5,92.5 Z"/></g>
<g><path style="opacity:1" fill="#8b949d" d="M 128.5,129.5 C 132.312,128.676 136.312,128.176 140.5,128C 133.833,127.333 133.833,126.667 140.5,126C 137.833,125.333 135.167,124.667 132.5,124C 134.044,123.71 135.377,123.044 136.5,122C 135.359,121.259 135.359,120.425 136.5,119.5C 134.922,118.702 133.256,118.202 131.5,118C 130.663,116.989 130.33,115.822 130.5,114.5C 120.809,116.341 111.142,118.507 101.5,121C 100.22,122.966 98.553,124.466 96.5,125.5C 97.5686,123.031 98.9019,120.698 100.5,118.5C 103.385,119.036 106.385,118.87 109.5,118C 118.986,114.862 128.653,112.028 138.5,109.5C 141.482,109.037 144.482,108.704 147.5,108.5C 148.663,112.312 151.33,114.312 155.5,114.5C 155.384,117.91 157.05,119.244 160.5,118.5C 160.33,119.822 160.663,120.989 161.5,122C 159.285,123.885 159.618,125.718 162.5,127.5C 151.201,128.757 139.868,129.424 128.5,129.5 Z"/></g>
<g><path style="opacity:1" fill="#a3a9b1" d="M 187.5,92.5 C 189.424,94.5838 191.591,96.5838 194,98.5C 195.99,103.813 198.99,108.48 203,112.5C 204.094,117.1 206.594,120.766 210.5,123.5C 211.167,113.008 211.833,102.674 212.5,92.5C 212.831,115.006 212.497,137.34 211.5,159.5C 211.5,158.833 211.5,158.167 211.5,157.5C 210.89,156.609 210.557,155.609 210.5,154.5C 210.649,153.448 210.483,152.448 210,151.5C 209.667,151.833 209.333,152.167 209,152.5C 208.774,148.113 208.274,143.779 207.5,139.5C 207.709,138.914 208.043,138.414 208.5,138C 207.5,135.667 206.5,133.333 205.5,131C 206.5,130.667 207.5,130.333 208.5,130C 206.833,129.667 205.167,129.333 203.5,129C 200.395,126.21 197.062,123.877 193.5,122C 192.446,119.618 191.779,117.118 191.5,114.5C 190.5,114.5 189.5,114.5 188.5,114.5C 188.509,112.692 188.009,111.025 187,109.5C 185.482,109.943 184.315,109.276 183.5,107.5C 184.729,106.719 186.062,106.219 187.5,106C 184.423,103.147 180.756,101.981 176.5,102.5C 176.146,100.459 176.146,98.6255 176.5,97C 180.619,96.3559 184.285,94.8559 187.5,92.5 Z"/></g>
<g><path style="opacity:1" fill="#15abe3" d="M 280.5,104.5 C 280.314,124.846 280.647,145.179 281.5,165.5C 279.433,168.927 278.1,172.594 277.5,176.5C 276.577,177.303 275.577,177.47 274.5,177C 267.821,171.505 260.488,167.172 252.5,164C 249.167,161.333 245.833,158.667 242.5,156C 239.937,154.921 237.271,154.421 234.5,154.5C 234.784,156.415 234.451,158.081 233.5,159.5C 233.5,156.5 233.5,153.5 233.5,150.5C 234.781,132.632 235.448,114.632 235.5,96.5C 236.39,98.8261 236.557,101.159 236,103.5C 238.847,104.506 241.681,105.506 244.5,106.5C 244.755,109.016 245.589,111.35 247,113.5C 249.043,114.579 250.376,116.246 251,118.5C 255.418,121.34 259.418,124.673 263,128.5C 262.805,130.126 262.805,131.793 263,133.5C 263.333,133.833 263.667,134.167 264,134.5C 264.333,133.167 264.667,131.833 265,130.5C 265.96,132.98 266.793,135.48 267.5,138C 269.81,138.497 272.143,138.663 274.5,138.5C 273.885,142.96 274.885,146.96 277.5,150.5C 277.833,149.5 278.167,148.5 278.5,147.5C 279.117,133.012 279.784,118.679 280.5,104.5 Z"/></g>
<g><path style="opacity:0.987" fill="#61b2d1" d="M 281.5,167.5 C 281.5,166.833 281.5,166.167 281.5,165.5C 280.647,145.179 280.314,124.846 280.5,104.5C 280.793,100.563 280.46,96.73 279.5,93C 264.5,92.3333 249.5,92.3333 234.5,93C 233.507,112.09 233.174,131.257 233.5,150.5C 233.5,153.5 233.5,156.5 233.5,159.5C 233.5,160.167 233.167,160.5 232.5,160.5C 232.5,137.167 232.5,113.833 232.5,90.5C 248.837,90.3334 265.17,90.5001 281.5,91C 282,91.5 282.5,92 283,92.5C 283.667,115.5 283.667,138.5 283,161.5C 282.809,163.708 282.309,165.708 281.5,167.5 Z"/></g>
<g><path style="opacity:1" fill="#18b2e8" d="M 280.5,104.5 C 279.784,118.679 279.117,133.012 278.5,147.5C 278.167,148.5 277.833,149.5 277.5,150.5C 274.885,146.96 273.885,142.96 274.5,138.5C 272.143,138.663 269.81,138.497 267.5,138C 266.793,135.48 265.96,132.98 265,130.5C 264.667,131.833 264.333,133.167 264,134.5C 263.667,134.167 263.333,133.833 263,133.5C 262.805,131.793 262.805,130.126 263,128.5C 259.418,124.673 255.418,121.34 251,118.5C 250.376,116.246 249.043,114.579 247,113.5C 245.589,111.35 244.755,109.016 244.5,106.5C 241.681,105.506 238.847,104.506 236,103.5C 236.557,101.159 236.39,98.8261 235.5,96.5C 235.448,114.632 234.781,132.632 233.5,150.5C 233.174,131.257 233.507,112.09 234.5,93C 249.5,92.3333 264.5,92.3333 279.5,93C 280.46,96.73 280.793,100.563 280.5,104.5 Z"/></g>
<g><path style="opacity:1" fill="#818a92" d="M 128.5,129.5 C 117.833,129.5 107.167,129.5 96.5,129.5C 96.5,128.5 96.5,127.5 96.5,126.5C 96.5,126.167 96.5,125.833 96.5,125.5C 98.553,124.466 100.22,122.966 101.5,121C 111.142,118.507 120.809,116.341 130.5,114.5C 130.33,115.822 130.663,116.989 131.5,118C 133.256,118.202 134.922,118.702 136.5,119.5C 135.359,120.425 135.359,121.259 136.5,122C 135.377,123.044 134.044,123.71 132.5,124C 135.167,124.667 137.833,125.333 140.5,126C 133.833,126.667 133.833,127.333 140.5,128C 136.312,128.176 132.312,128.676 128.5,129.5 Z"/></g>
<g><path style="opacity:0.004" fill="#fefffe" d="M 15.5,120.5 C 16.8333,121.167 16.8333,121.167 15.5,120.5 Z"/></g>
<g><path style="opacity:1" fill="#606b77" d="M 36.5,122.5 C 38.0745,124.8 40.0745,125.633 42.5,125C 41.8617,126.707 41.8617,128.54 42.5,130.5C 43.5,130.5 44.5,130.5 45.5,130.5C 45.244,132.912 46.244,134.579 48.5,135.5C 47.2713,136.281 45.938,136.781 44.5,137C 53.3571,139.449 58.3571,145.283 59.5,154.5C 65.7926,153.636 67.4593,155.803 64.5,161C 65.9047,162.269 67.5714,162.769 69.5,162.5C 74.0675,164.285 79.0675,165.118 84.5,165C 82.1873,165.662 79.854,166.162 77.5,166.5C 77.5,167.833 77.5,169.167 77.5,170.5C 78.5,170.5 79.5,170.5 80.5,170.5C 82.0776,173.647 83.5776,176.98 85,180.5C 86.4907,182.004 88.324,182.837 90.5,183C 93.5697,186.01 92.903,187.843 88.5,188.5C 99.5235,190.658 110.19,193.658 120.5,197.5C 113.742,197.573 107.408,196.073 101.5,193C 92.4053,191.319 83.4053,189.319 74.5,187C 75.3363,185.757 75.003,184.59 73.5,183.5C 72.914,183.709 72.414,184.043 72,184.5C 68.5861,180.011 65.9194,175.011 64,169.5C 61.0703,168.976 58.5703,167.642 56.5,165.5C 57.0253,164.808 57.6919,164.308 58.5,164C 56.9632,162.89 56.2965,161.39 56.5,159.5C 54.4028,159.003 52.5695,158.67 51,158.5C 50.5078,157.451 50.6744,156.451 51.5,155.5C 46.9463,153.619 44.2797,150.286 43.5,145.5C 39.4689,144.687 37.1356,142.354 36.5,138.5C 34.712,138.785 33.0453,138.452 31.5,137.5C 30.9752,135.012 30.1419,132.679 29,130.5C 28.3333,131.833 27.6667,131.833 27,130.5C 26.6232,131.942 25.7899,132.942 24.5,133.5C 24.0133,132.527 23.5133,131.527 23,130.5C 20.9864,138.341 20.153,146.341 20.5,154.5C 20.5,169.833 20.5,185.167 20.5,200.5C 20.5,204.167 20.5,207.833 20.5,211.5C 19.3368,187.337 19.1701,163.003 20,138.5C 20.5022,135.487 21.0022,132.487 21.5,129.5C 22.935,127.402 24.1016,125.069 25,122.5C 28.5871,121.794 32.4204,121.794 36.5,122.5 Z"/></g>
<g><path style="opacity:1" fill="#606c78" d="M 36.5,122.5 C 45.4881,123.665 54.4881,124.665 63.5,125.5C 63.2865,127.144 63.6198,128.644 64.5,130C 63.5,130.333 62.5,130.667 61.5,131C 65.296,132.336 66.296,134.836 64.5,138.5C 65.8631,139.893 66.6964,141.559 67,143.5C 67.806,149.889 68.6393,156.222 69.5,162.5C 67.5714,162.769 65.9047,162.269 64.5,161C 67.4593,155.803 65.7926,153.636 59.5,154.5C 58.3571,145.283 53.3571,139.449 44.5,137C 45.938,136.781 47.2713,136.281 48.5,135.5C 46.244,134.579 45.244,132.912 45.5,130.5C 44.5,130.5 43.5,130.5 42.5,130.5C 41.8617,128.54 41.8617,126.707 42.5,125C 40.0745,125.633 38.0745,124.8 36.5,122.5 Z"/></g>
<g><path style="opacity:1" fill="#545f6d" d="M 120.5,197.5 C 122.713,197.848 124.713,198.681 126.5,200C 111.167,200.333 95.8333,200.667 80.5,201C 77.9644,201.186 75.631,201.686 73.5,202.5C 55.8011,203.153 38.4678,202.486 21.5,200.5C 46.5184,200.216 71.5184,199.55 96.5,198.5C 95.6916,195.53 93.6916,193.697 90.5,193C 85.8637,192.887 81.5304,191.721 77.5,189.5C 72.8677,188.685 68.201,188.352 63.5,188.5C 62.3272,186.496 60.6605,184.996 58.5,184C 59.1667,183.667 59.8333,183.333 60.5,183C 58.5,182.167 56.5,181.333 54.5,180.5C 55.0253,179.808 55.6919,179.308 56.5,179C 54.8659,178.506 53.1992,178.34 51.5,178.5C 51.2661,174.231 50.0994,170.231 48,166.5C 47.586,166.957 47.086,167.291 46.5,167.5C 44.6385,166.472 43.3052,164.972 42.5,163C 37.9844,161.55 35.1511,158.384 34,153.5C 33.2588,152.359 32.4255,152.359 31.5,153.5C 29.9537,149.955 27.787,146.955 25,144.5C 24.4357,141.845 23.9357,139.179 23.5,136.5C 23.5195,135.274 23.8529,134.274 24.5,133.5C 25.7899,132.942 26.6232,131.942 27,130.5C 27.6667,131.833 28.3333,131.833 29,130.5C 30.1419,132.679 30.9752,135.012 31.5,137.5C 33.0453,138.452 34.712,138.785 36.5,138.5C 37.1356,142.354 39.4689,144.687 43.5,145.5C 44.2797,150.286 46.9463,153.619 51.5,155.5C 50.6744,156.451 50.5078,157.451 51,158.5C 52.5695,158.67 54.4028,159.003 56.5,159.5C 56.2965,161.39 56.9632,162.89 58.5,164C 57.6919,164.308 57.0253,164.808 56.5,165.5C 58.5703,167.642 61.0703,168.976 64,169.5C 65.9194,175.011 68.5861,180.011 72,184.5C 72.414,184.043 72.914,183.709 73.5,183.5C 75.003,184.59 75.3363,185.757 74.5,187C 83.4053,189.319 92.4053,191.319 101.5,193C 107.408,196.073 113.742,197.573 120.5,197.5 Z"/></g>
<g><path style="opacity:1" fill="#8e97a0" d="M 200.5,176.5 C 197.514,181.152 193.847,185.152 189.5,188.5C 188.508,188.672 187.842,188.338 187.5,187.5C 190.122,184.743 192.955,182.076 196,179.5C 196.36,177.579 197.194,175.912 198.5,174.5C 197.726,173.289 196.893,173.289 196,174.5C 193.615,172.116 191.615,169.45 190,166.5C 186.64,164.64 184.14,161.973 182.5,158.5C 181.311,157.571 179.978,157.238 178.5,157.5C 177.93,153.761 175.764,151.428 172,150.5C 171.654,147.424 170.988,144.424 170,141.5C 168.667,142.833 167.333,142.833 166,141.5C 165.768,140.263 165.268,139.263 164.5,138.5C 163.822,135.673 164.156,132.839 165.5,130C 166.6,129.568 167.267,130.068 167.5,131.5C 167.081,132.672 166.415,133.672 165.5,134.5C 165.833,134.833 166.167,135.167 166.5,135.5C 167.971,134.619 168.804,133.286 169,131.5C 172.138,134.308 173.972,137.808 174.5,142C 175.799,143.326 177.132,144.66 178.5,146C 178.167,146.333 177.833,146.667 177.5,147C 183.584,148.087 187.917,151.42 190.5,157C 192.333,158.167 194.167,159.333 196,160.5C 196.251,162.433 196.751,164.266 197.5,166C 198.784,166.684 199.951,166.517 201,165.5C 201.388,169.072 201.221,172.739 200.5,176.5 Z"/></g>
<g><path style="opacity:1" fill="#889099" d="M 94.5,131.5 C 116.836,131.333 139.169,131.5 161.5,132C 161.859,134.63 162.859,136.797 164.5,138.5C 165.268,139.263 165.768,140.263 166,141.5C 167.333,142.833 168.667,142.833 170,141.5C 170.988,144.424 171.654,147.424 172,150.5C 175.764,151.428 177.93,153.761 178.5,157.5C 179.978,157.238 181.311,157.571 182.5,158.5C 184.14,161.973 186.64,164.64 190,166.5C 191.615,169.45 193.615,172.116 196,174.5C 196.893,173.289 197.726,173.289 198.5,174.5C 197.194,175.912 196.36,177.579 196,179.5C 192.955,182.076 190.122,184.743 187.5,187.5C 187.33,186.178 187.663,185.011 188.5,184C 185.36,182.04 183.527,179.207 183,175.5C 181.333,174.833 179.667,174.167 178,173.5C 174.539,168.198 170.872,163.198 167,158.5C 165.309,161.131 164.142,160.797 163.5,157.5C 162.583,156.873 161.583,156.539 160.5,156.5C 161.392,151.562 161.726,146.562 161.5,141.5C 138.49,141.833 115.49,141.5 92.5,140.5C 92.2907,139.914 91.9574,139.414 91.5,139C 92.1094,137.052 92.776,135.218 93.5,133.5C 93.3284,132.508 93.6618,131.842 94.5,131.5 Z"/></g>
<g><path style="opacity:1" fill="#4c5965" d="M 93.5,133.5 C 115.758,132.511 138.092,132.178 160.5,132.5C 160.292,134.92 160.626,137.253 161.5,139.5C 138.843,140.5 116.176,140.833 93.5,140.5C 93.5,138.167 93.5,135.833 93.5,133.5 Z"/></g>
<g><path style="opacity:0.004" fill="#fefffe" d="M 8.5,149.5 C 9.83333,150.167 9.83333,150.167 8.5,149.5 Z"/></g>
<g><path style="opacity:1" fill="#4d5967" d="M 24.5,133.5 C 23.8529,134.274 23.5195,135.274 23.5,136.5C 23.9357,139.179 24.4357,141.845 25,144.5C 27.787,146.955 29.9537,149.955 31.5,153.5C 32.4255,152.359 33.2588,152.359 34,153.5C 35.1511,158.384 37.9844,161.55 42.5,163C 43.3052,164.972 44.6385,166.472 46.5,167.5C 47.086,167.291 47.586,166.957 48,166.5C 50.0994,170.231 51.2661,174.231 51.5,178.5C 53.1992,178.34 54.8659,178.506 56.5,179C 55.6919,179.308 55.0253,179.808 54.5,180.5C 56.5,181.333 58.5,182.167 60.5,183C 59.8333,183.333 59.1667,183.667 58.5,184C 60.6605,184.996 62.3272,186.496 63.5,188.5C 53.4543,188.28 43.4543,187.446 33.5,186C 32.8514,183.519 31.8514,183.186 30.5,185C 28.5273,185.495 26.5273,185.662 24.5,185.5C 23.4913,174.844 22.158,164.511 20.5,154.5C 20.153,146.341 20.9864,138.341 23,130.5C 23.5133,131.527 24.0133,132.527 24.5,133.5 Z"/></g>
<g><path style="opacity:1" fill="#868e98" d="M 160.5,156.5 C 161.583,156.539 162.583,156.873 163.5,157.5C 164.142,160.797 165.309,161.131 167,158.5C 170.872,163.198 174.539,168.198 178,173.5C 179.667,174.167 181.333,174.833 183,175.5C 183.527,179.207 185.36,182.04 188.5,184C 187.663,185.011 187.33,186.178 187.5,187.5C 187.842,188.338 188.508,188.672 189.5,188.5C 181.509,195.492 172.176,199.826 161.5,201.5C 153.493,201.666 145.493,201.5 137.5,201C 144.548,200.761 151.548,200.261 158.5,199.5C 164.225,198.758 169.559,196.925 174.5,194C 172.624,192.983 170.624,192.149 168.5,191.5C 169.729,190.719 171.062,190.219 172.5,190C 171.692,189.692 171.025,189.192 170.5,188.5C 171.729,187.719 173.062,187.219 174.5,187C 170.424,179.1 165.757,171.6 160.5,164.5C 157.356,163.368 153.189,162.701 148,162.5C 145.167,162.667 142.333,162.833 139.5,163C 141.382,163.198 143.048,163.698 144.5,164.5C 141.603,164.875 138.937,164.375 136.5,163C 115.329,162.832 94.3293,162.332 73.5,161.5C 100.835,161.667 128.169,161.5 155.5,161C 157.687,159.975 159.354,158.475 160.5,156.5 Z"/></g>
<g><path style="opacity:1" fill="#646f7b" d="M 69.5,162.5 C 77.445,163.437 85.445,163.77 93.5,163.5C 97.9819,164.326 102.649,164.826 107.5,165C 105.608,165.973 103.608,166.64 101.5,167C 105,170.796 108.833,174.296 113,177.5C 113.471,179.246 114.138,180.913 115,182.5C 116,181.167 117,181.167 118,182.5C 119.613,187.947 123.113,191.614 128.5,193.5C 126.941,195.131 124.941,195.964 122.5,196C 125.094,196.63 127.427,197.797 129.5,199.5C 129.291,200.086 128.957,200.586 128.5,201C 130.345,202.128 132.345,202.628 134.5,202.5C 142.5,202.5 150.5,202.5 158.5,202.5C 130.332,203.494 101.999,203.494 73.5,202.5C 75.631,201.686 77.9644,201.186 80.5,201C 95.8333,200.667 111.167,200.333 126.5,200C 124.713,198.681 122.713,197.848 120.5,197.5C 110.19,193.658 99.5235,190.658 88.5,188.5C 92.903,187.843 93.5697,186.01 90.5,183C 88.324,182.837 86.4907,182.004 85,180.5C 83.5776,176.98 82.0776,173.647 80.5,170.5C 79.5,170.5 78.5,170.5 77.5,170.5C 77.5,169.167 77.5,167.833 77.5,166.5C 79.854,166.162 82.1873,165.662 84.5,165C 79.0675,165.118 74.0675,164.285 69.5,162.5 Z"/></g>
<g><path style="opacity:1" fill="#6d7781" d="M 93.5,163.5 C 101.553,163.225 109.553,163.725 117.5,165C 116.672,165.915 115.672,166.581 114.5,167C 116.962,168.216 119.629,168.882 122.5,169C 122.167,169.333 121.833,169.667 121.5,170C 123.948,174.115 126.781,177.948 130,181.5C 130.922,184.991 132.089,188.325 133.5,191.5C 135.783,191.608 137.783,192.441 139.5,194C 140.833,194.667 140.833,195.333 139.5,196C 141.116,196.615 142.449,197.615 143.5,199C 140.118,199.176 136.785,199.676 133.5,200.5C 133.863,201.183 134.196,201.85 134.5,202.5C 132.345,202.628 130.345,202.128 128.5,201C 128.957,200.586 129.291,200.086 129.5,199.5C 127.427,197.797 125.094,196.63 122.5,196C 124.941,195.964 126.941,195.131 128.5,193.5C 123.113,191.614 119.613,187.947 118,182.5C 117,181.167 116,181.167 115,182.5C 114.138,180.913 113.471,179.246 113,177.5C 108.833,174.296 105,170.796 101.5,167C 103.608,166.64 105.608,165.973 107.5,165C 102.649,164.826 97.9819,164.326 93.5,163.5 Z"/></g>
<g><path style="opacity:1" fill="#747d87" d="M 73.5,121.5 C 73.3284,122.492 73.6618,123.158 74.5,123.5C 70.8143,135.531 69.3143,147.864 70,160.5C 71.0113,161.337 72.1779,161.67 73.5,161.5C 94.3293,162.332 115.329,162.832 136.5,163C 138.937,164.375 141.603,164.875 144.5,164.5C 142.921,166.247 140.587,167.081 137.5,167C 139.81,167.497 142.143,167.663 144.5,167.5C 145.564,171.099 147.731,174.099 151,176.5C 151.69,180.913 153.523,184.747 156.5,188C 157.938,188.219 159.271,188.719 160.5,189.5C 157.833,190.167 155.167,190.833 152.5,191.5C 153.833,192.167 155.167,192.833 156.5,193.5C 157.641,194.425 157.641,195.259 156.5,196C 161.816,195.896 162.483,197.063 158.5,199.5C 151.548,200.261 144.548,200.761 137.5,201C 145.493,201.5 153.493,201.666 161.5,201.5C 161.5,201.833 161.5,202.167 161.5,202.5C 160.5,202.5 159.5,202.5 158.5,202.5C 150.5,202.5 142.5,202.5 134.5,202.5C 134.196,201.85 133.863,201.183 133.5,200.5C 136.785,199.676 140.118,199.176 143.5,199C 142.449,197.615 141.116,196.615 139.5,196C 140.833,195.333 140.833,194.667 139.5,194C 137.783,192.441 135.783,191.608 133.5,191.5C 132.089,188.325 130.922,184.991 130,181.5C 126.781,177.948 123.948,174.115 121.5,170C 121.833,169.667 122.167,169.333 122.5,169C 119.629,168.882 116.962,168.216 114.5,167C 115.672,166.581 116.672,165.915 117.5,165C 109.553,163.725 101.553,163.225 93.5,163.5C 85.445,163.77 77.445,163.437 69.5,162.5C 68.6393,156.222 67.806,149.889 67,143.5C 66.6964,141.559 65.8631,139.893 64.5,138.5C 66.296,134.836 65.296,132.336 61.5,131C 62.5,130.667 63.5,130.333 64.5,130C 63.6198,128.644 63.2865,127.144 63.5,125.5C 54.4881,124.665 45.4881,123.665 36.5,122.5C 32.4204,121.794 28.5871,121.794 25,122.5C 24.1016,125.069 22.935,127.402 21.5,129.5C 21.5651,126.572 22.2318,123.905 23.5,121.5C 24.1556,120.722 24.9889,120.056 26,119.5C 38.2728,121.326 50.6062,122.659 63,123.5C 66.7622,123.415 70.2622,122.748 73.5,121.5 Z"/></g>
<g><path style="opacity:1" fill="#2089d0" d="M 277.5,176.5 C 275.964,181.109 274.63,185.776 273.5,190.5C 264.449,212.267 250.782,230.601 232.5,245.5C 231.5,245.5 230.5,245.5 229.5,245.5C 229.5,244.5 229.5,243.5 229.5,242.5C 230.234,241.292 230.567,239.959 230.5,238.5C 235.367,239.467 237.534,237.467 237,232.5C 238.444,230.845 240.278,230.178 242.5,230.5C 245.242,229.442 245.909,227.609 244.5,225C 246.26,222.517 248.427,222.017 251,223.5C 251.005,220.771 252.171,218.771 254.5,217.5C 253.754,216.264 253.421,214.93 253.5,213.5C 254.892,211.727 256.059,209.727 257,207.5C 259.407,207.673 261.74,207.673 264,207.5C 265.505,201.494 266.005,195.494 265.5,189.5C 263.06,191.922 260.726,191.922 258.5,189.5C 258.467,188.011 257.967,186.678 257,185.5C 255.733,187.907 255.233,190.24 255.5,192.5C 252.796,186.534 249.629,180.868 246,175.5C 244.439,173.027 242.439,171.027 240,169.5C 238.795,170.071 237.628,170.738 236.5,171.5C 238.424,172.877 239.59,174.543 240,176.5C 238.477,178.62 236.644,178.953 234.5,177.5C 233.044,180.286 232.044,183.286 231.5,186.5C 230.571,185.45 229.905,185.45 229.5,186.5C 227.708,186.366 226.042,186.699 224.5,187.5C 228.01,178.648 230.676,169.648 232.5,160.5C 233.167,160.5 233.5,160.167 233.5,159.5C 234.451,158.081 234.784,156.415 234.5,154.5C 237.271,154.421 239.937,154.921 242.5,156C 245.833,158.667 249.167,161.333 252.5,164C 260.488,167.172 267.821,171.505 274.5,177C 275.577,177.47 276.577,177.303 277.5,176.5 Z"/></g>
<g><path style="opacity:1" fill="#7b858f" d="M 158.5,199.5 C 162.483,197.063 161.816,195.896 156.5,196C 157.641,195.259 157.641,194.425 156.5,193.5C 155.167,192.833 153.833,192.167 152.5,191.5C 155.167,190.833 157.833,190.167 160.5,189.5C 159.271,188.719 157.938,188.219 156.5,188C 153.523,184.747 151.69,180.913 151,176.5C 147.731,174.099 145.564,171.099 144.5,167.5C 142.143,167.663 139.81,167.497 137.5,167C 140.587,167.081 142.921,166.247 144.5,164.5C 143.048,163.698 141.382,163.198 139.5,163C 142.333,162.833 145.167,162.667 148,162.5C 153.189,162.701 157.356,163.368 160.5,164.5C 165.757,171.6 170.424,179.1 174.5,187C 173.062,187.219 171.729,187.719 170.5,188.5C 171.025,189.192 171.692,189.692 172.5,190C 171.062,190.219 169.729,190.719 168.5,191.5C 170.624,192.149 172.624,192.983 174.5,194C 169.559,196.925 164.225,198.758 158.5,199.5 Z"/></g>
<g><path style="opacity:1" fill="#1986d1" d="M 253.5,213.5 C 251.767,212.992 251.434,212.159 252.5,211C 250.275,208.772 247.775,206.939 245,205.5C 243.219,202.726 241.885,199.726 241,196.5C 240.014,200.375 238.847,200.375 237.5,196.5C 238.263,195.281 239.263,194.281 240.5,193.5C 239.051,191.182 237.218,189.182 235,187.5C 233.703,189.782 233.203,192.115 233.5,194.5C 231.5,193.833 229.5,193.167 227.5,192.5C 228.747,190.677 229.414,188.677 229.5,186.5C 229.905,185.45 230.571,185.45 231.5,186.5C 232.044,183.286 233.044,180.286 234.5,177.5C 236.644,178.953 238.477,178.62 240,176.5C 239.59,174.543 238.424,172.877 236.5,171.5C 237.628,170.738 238.795,170.071 240,169.5C 242.439,171.027 244.439,173.027 246,175.5C 249.629,180.868 252.796,186.534 255.5,192.5C 255.233,190.24 255.733,187.907 257,185.5C 257.967,186.678 258.467,188.011 258.5,189.5C 260.726,191.922 263.06,191.922 265.5,189.5C 266.005,195.494 265.505,201.494 264,207.5C 261.74,207.673 259.407,207.673 257,207.5C 256.059,209.727 254.892,211.727 253.5,213.5 Z"/></g>
<g><path style="opacity:1" fill="#404d5b" d="M 20.5,154.5 C 22.158,164.511 23.4913,174.844 24.5,185.5C 26.5273,185.662 28.5273,185.495 30.5,185C 31.8514,183.186 32.8514,183.519 33.5,186C 43.4543,187.446 53.4543,188.28 63.5,188.5C 68.201,188.352 72.8677,188.685 77.5,189.5C 81.5304,191.721 85.8637,192.887 90.5,193C 93.6916,193.697 95.6916,195.53 96.5,198.5C 71.5184,199.55 46.5184,200.216 21.5,200.5C 21.1667,200.5 20.8333,200.5 20.5,200.5C 20.5,185.167 20.5,169.833 20.5,154.5 Z"/></g>
<g><path style="opacity:0.976" fill="#436186" d="M 281.5,165.5 C 281.5,166.167 281.5,166.833 281.5,167.5C 280.799,180.646 277.466,192.979 271.5,204.5C 272.749,200.596 273.749,196.596 274.5,192.5C 274.457,191.584 274.124,190.917 273.5,190.5C 274.63,185.776 275.964,181.109 277.5,176.5C 278.1,172.594 279.433,168.927 281.5,165.5 Z"/></g>
<g><path style="opacity:1" fill="#197fcb" d="M 229.5,186.5 C 229.414,188.677 228.747,190.677 227.5,192.5C 229.5,193.167 231.5,193.833 233.5,194.5C 233.203,192.115 233.703,189.782 235,187.5C 237.218,189.182 239.051,191.182 240.5,193.5C 239.263,194.281 238.263,195.281 237.5,196.5C 238.847,200.375 240.014,200.375 241,196.5C 241.885,199.726 243.219,202.726 245,205.5C 247.775,206.939 250.275,208.772 252.5,211C 251.434,212.159 251.767,212.992 253.5,213.5C 253.421,214.93 253.754,216.264 254.5,217.5C 252.171,218.771 251.005,220.771 251,223.5C 248.427,222.017 246.26,222.517 244.5,225C 245.909,227.609 245.242,229.442 242.5,230.5C 243.546,228.215 243.546,225.882 242.5,223.5C 241.178,223.33 240.011,223.663 239,224.5C 237.383,223.359 235.55,222.526 233.5,222C 230.558,218.631 227.724,215.131 225,211.5C 224.751,212.624 224.251,213.624 223.5,214.5C 223.167,214 222.833,213.5 222.5,213C 225.913,206.939 224.246,204.106 217.5,204.5C 218.193,203.482 218.859,202.482 219.5,201.5C 219.675,199.156 220.842,197.489 223,196.5C 224.149,193.607 224.649,190.607 224.5,187.5C 226.042,186.699 227.708,186.366 229.5,186.5 Z"/></g>
<g><path style="opacity:1" fill="#44505f" d="M 20.5,200.5 C 20.8333,200.5 21.1667,200.5 21.5,200.5C 38.4678,202.486 55.8011,203.153 73.5,202.5C 101.999,203.494 130.332,203.494 158.5,202.5C 159.5,202.5 160.5,202.5 161.5,202.5C 162.873,202.343 164.207,202.51 165.5,203C 164.333,203.5 163.5,204.333 163,205.5C 162.586,205.043 162.086,204.709 161.5,204.5C 160.548,206.045 160.215,207.712 160.5,209.5C 146.551,209.078 133.051,208.745 120,208.5C 117.26,209.282 114.426,209.782 111.5,210C 112.167,210.333 112.833,210.667 113.5,211C 99.6605,211.169 85.9939,211.669 72.5,212.5C 56.119,212.182 39.7857,212.515 23.5,213.5C 22.2613,213.058 21.2613,212.391 20.5,211.5C 20.5,207.833 20.5,204.167 20.5,200.5 Z"/></g>
<g><path style="opacity:0.872" fill="#57606b" d="M 211.5,157.5 C 211.5,158.167 211.5,158.833 211.5,159.5C 205.828,189.02 188.161,206.52 158.5,212C 129.835,212.5 101.169,212.667 72.5,212.5C 85.9939,211.669 99.6605,211.169 113.5,211C 112.833,210.667 112.167,210.333 111.5,210C 114.426,209.782 117.26,209.282 120,208.5C 133.051,208.745 146.551,209.078 160.5,209.5C 160.215,207.712 160.548,206.045 161.5,204.5C 162.086,204.709 162.586,205.043 163,205.5C 163.5,204.333 164.333,203.5 165.5,203C 164.207,202.51 162.873,202.343 161.5,202.5C 161.5,202.167 161.5,201.833 161.5,201.5C 172.176,199.826 181.509,195.492 189.5,188.5C 193.847,185.152 197.514,181.152 200.5,176.5C 202.664,174.178 204.331,171.511 205.5,168.5C 207.653,165.778 208.986,162.611 209.5,159C 209.836,157.97 210.503,157.47 211.5,157.5 Z"/></g>
<g><path style="opacity:1" fill="#1679c5" d="M 219.5,201.5 C 218.859,202.482 218.193,203.482 217.5,204.5C 224.246,204.106 225.913,206.939 222.5,213C 222.833,213.5 223.167,214 223.5,214.5C 224.251,213.624 224.751,212.624 225,211.5C 227.724,215.131 230.558,218.631 233.5,222C 235.55,222.526 237.383,223.359 239,224.5C 240.011,223.663 241.178,223.33 242.5,223.5C 243.546,225.882 243.546,228.215 242.5,230.5C 240.278,230.178 238.444,230.845 237,232.5C 237.534,237.467 235.367,239.467 230.5,238.5C 230.567,239.959 230.234,241.292 229.5,242.5C 228.833,242.5 228.167,242.5 227.5,242.5C 229.049,238.931 227.883,236.598 224,235.5C 223.575,231.694 221.408,229.86 217.5,230C 214.494,227.365 214.828,225.365 218.5,224C 217.128,222.758 216.128,221.258 215.5,219.5C 216.934,217.78 217.767,215.78 218,213.5C 220.454,214.351 221.454,213.351 221,210.5C 218.529,211.403 216.362,210.737 214.5,208.5C 212.09,211.251 209.423,213.585 206.5,215.5C 209.491,211.344 212.658,207.344 216,203.5C 216.816,202.177 217.983,201.511 219.5,201.5 Z"/></g>
<g><path style="opacity:0.004" fill="#fefffe" d="M 134.5,214.5 C 135.833,215.167 135.833,215.167 134.5,214.5 Z"/></g>
<g><path style="opacity:0.945" fill="#447aac" d="M 224.5,187.5 C 224.649,190.607 224.149,193.607 223,196.5C 220.842,197.489 219.675,199.156 219.5,201.5C 217.983,201.511 216.816,202.177 216,203.5C 212.658,207.344 209.491,211.344 206.5,215.5C 202.648,217.925 198.981,220.591 195.5,223.5C 192.727,223.812 190.393,224.978 188.5,227C 186.527,227.495 184.527,227.662 182.5,227.5C 200.726,218.607 214.726,205.274 224.5,187.5 Z"/></g>
<g><path style="opacity:0.004" fill="#fefffe" d="M 79.5,226.5 C 80.8333,227.167 80.8333,227.167 79.5,226.5 Z"/></g>
<g><path style="opacity:1" fill="#1674c1" d="M 227.5,242.5 C 224.109,242.496 221.109,240.996 218.5,238C 212.621,234.894 206.621,232.06 200.5,229.5C 198.758,227.437 197.091,225.437 195.5,223.5C 198.981,220.591 202.648,217.925 206.5,215.5C 209.423,213.585 212.09,211.251 214.5,208.5C 216.362,210.737 218.529,211.403 221,210.5C 221.454,213.351 220.454,214.351 218,213.5C 217.767,215.78 216.934,217.78 215.5,219.5C 216.128,221.258 217.128,222.758 218.5,224C 214.828,225.365 214.494,227.365 217.5,230C 221.408,229.86 223.575,231.694 224,235.5C 227.883,236.598 229.049,238.931 227.5,242.5 Z"/></g>
<g><path style="opacity:1" fill="#145b9e" d="M 195.5,223.5 C 197.091,225.437 198.758,227.437 200.5,229.5C 206.621,232.06 212.621,234.894 218.5,238C 221.109,240.996 224.109,242.496 227.5,242.5C 228.167,242.5 228.833,242.5 229.5,242.5C 229.5,243.5 229.5,244.5 229.5,245.5C 230.5,245.5 231.5,245.5 232.5,245.5C 220.353,254.978 207.02,262.311 192.5,267.5C 184.341,269.956 176.007,271.622 167.5,272.5C 154.496,272.667 141.496,272.5 128.5,272C 134.167,271.667 139.833,271.333 145.5,271C 150.44,268.687 155.273,268.521 160,270.5C 163.936,269.872 167.77,268.872 171.5,267.5C 174.303,268.776 176.97,268.776 179.5,267.5C 187.091,266.707 194.091,264.207 200.5,260C 199.833,259.333 199.167,258.667 198.5,258C 199.833,257 199.833,256 198.5,255C 199.5,254.667 200.5,254.333 201.5,254C 199.294,251.809 196.628,250.309 193.5,249.5C 189.342,244.522 185.675,239.188 182.5,233.5C 179.136,234.826 175.803,234.826 172.5,233.5C 172.631,232.761 172.464,232.094 172,231.5C 168.943,232.451 165.777,232.784 162.5,232.5C 169.15,231.171 175.817,229.504 182.5,227.5C 184.527,227.662 186.527,227.495 188.5,227C 190.393,224.978 192.727,223.812 195.5,223.5 Z"/></g>
<g><path style="opacity:0.004" fill="#fefffe" d="M 305.5,229.5 C 306.833,230.167 306.833,230.167 305.5,229.5 Z"/></g>
<g><path style="opacity:0.004" fill="#fefffe" d="M 20.5,231.5 C 21.8333,232.167 21.8333,232.167 20.5,231.5 Z"/></g>
<g><path style="opacity:1" fill="#0e5399" d="M 172.5,233.5 C 175.803,234.826 179.136,234.826 182.5,233.5C 185.675,239.188 189.342,244.522 193.5,249.5C 196.628,250.309 199.294,251.809 201.5,254C 200.5,254.333 199.5,254.667 198.5,255C 199.833,256 199.833,257 198.5,258C 199.167,258.667 199.833,259.333 200.5,260C 194.091,264.207 187.091,266.707 179.5,267.5C 180.987,266.196 182.654,265.03 184.5,264C 182.299,263.175 180.466,263.675 179,265.5C 178.25,264.874 177.416,264.374 176.5,264C 179.668,263.418 180.001,262.418 177.5,261C 178.711,260.107 178.711,259.274 177.5,258.5C 175.074,258.619 172.74,258.953 170.5,259.5C 168.692,258.082 168.025,256.082 168.5,253.5C 165.402,253.587 165.068,253.087 167.5,252C 164.833,251.333 164.833,250.667 167.5,250C 164.542,249.432 161.875,248.265 159.5,246.5C 158.472,243.761 157.805,241.261 157.5,239C 156.584,238.626 155.75,238.126 155,237.5C 153.333,237.833 151.667,238.167 150,238.5C 148.955,237.627 148.122,236.627 147.5,235.5C 156.037,235.536 164.37,234.869 172.5,233.5 Z"/></g>
<g><path style="opacity:0.933" fill="#214676" d="M 172.5,233.5 C 164.37,234.869 156.037,235.536 147.5,235.5C 134.167,235.5 120.833,235.5 107.5,235.5C 94.1667,235.5 80.8333,235.5 67.5,235.5C 63.8183,235.335 60.1516,235.501 56.5,236C 52.6701,237.998 48.6701,239.498 44.5,240.5C 49.1697,237.008 54.5031,234.841 60.5,234C 94.5227,233.806 128.523,233.306 162.5,232.5C 165.777,232.784 168.943,232.451 172,231.5C 172.464,232.094 172.631,232.761 172.5,233.5 Z"/></g>
<g><path style="opacity:1" fill="#0c4089" d="M 67.5,235.5 C 67.9175,236.222 68.5842,236.722 69.5,237C 77.4515,236.34 85.4515,236.84 93.5,238.5C 92.2822,239.803 92.6155,240.803 94.5,241.5C 92.8442,243.329 90.8442,244.663 88.5,245.5C 90.8371,246.517 92.5037,248.184 93.5,250.5C 94.4287,249.311 94.762,247.978 94.5,246.5C 96.5273,246.338 98.5273,246.505 100.5,247C 100.167,247.333 99.8333,247.667 99.5,248C 101.764,248.236 103.931,248.736 106,249.5C 106.317,247.699 106.984,247.366 108,248.5C 108.283,250.602 107.45,252.269 105.5,253.5C 102.156,254.757 98.8231,254.757 95.5,253.5C 91.368,255.451 91.5346,256.784 96,257.5C 98.9156,255.987 101.582,256.32 104,258.5C 104.667,255.833 105.333,255.833 106,258.5C 106.333,258.167 106.667,257.833 107,257.5C 109.042,259.604 111.542,260.771 114.5,261C 112.713,264.336 110.546,265.169 108,263.5C 106.053,264.11 104.219,264.943 102.5,266C 105.77,266.995 109.103,267.828 112.5,268.5C 110.709,269.17 109.042,269.837 107.5,270.5C 99.8333,270.5 92.1667,270.5 84.5,270.5C 84.8039,269.85 85.1373,269.183 85.5,268.5C 84.4783,267.646 83.6449,266.646 83,265.5C 82.6121,266.428 81.9454,267.095 81,267.5C 79.5603,266.852 78.0603,266.519 76.5,266.5C 76.7899,261.488 75.4566,256.988 72.5,253C 72.9054,252.055 73.572,251.388 74.5,251C 69.3164,251.126 68.6497,249.959 72.5,247.5C 70.2756,246.22 68.2756,246.553 66.5,248.5C 65.3175,246.355 63.8175,246.355 62,248.5C 58.2173,247.671 54.384,246.671 50.5,245.5C 47.8972,247.049 45.3972,248.715 43,250.5C 41.9701,250.164 41.4701,249.497 41.5,248.5C 43.8888,247.946 45.5555,246.446 46.5,244C 45.8333,243.833 45.1667,243.667 44.5,243.5C 40.8107,246.345 36.8107,248.679 32.5,250.5C 35.5736,246.096 39.5736,242.763 44.5,240.5C 48.6701,239.498 52.6701,237.998 56.5,236C 60.1516,235.501 63.8183,235.335 67.5,235.5 Z"/></g>
<g><path style="opacity:1" fill="#0c4e95" d="M 107.5,235.5 C 120.833,235.5 134.167,235.5 147.5,235.5C 148.122,236.627 148.955,237.627 150,238.5C 151.667,238.167 153.333,237.833 155,237.5C 155.75,238.126 156.584,238.626 157.5,239C 157.805,241.261 158.472,243.761 159.5,246.5C 161.875,248.265 164.542,249.432 167.5,250C 164.833,250.667 164.833,251.333 167.5,252C 165.068,253.087 165.402,253.587 168.5,253.5C 168.025,256.082 168.692,258.082 170.5,259.5C 168.28,260.375 165.28,260.875 161.5,261C 162.654,261.914 162.487,262.747 161,263.5C 159.333,262.5 157.667,261.5 156,260.5C 156.71,257.914 155.71,255.914 153,254.5C 152.808,256.577 152.308,258.577 151.5,260.5C 150.808,259.975 150.308,259.308 150,258.5C 149.503,255.854 149.336,253.187 149.5,250.5C 150.043,250.44 150.376,250.107 150.5,249.5C 147.628,248.217 144.795,248.217 142,249.5C 141.333,246.833 140.667,246.833 140,249.5C 139.333,246.833 138.667,246.833 138,249.5C 137.333,248.167 136.667,248.167 136,249.5C 133.788,248.35 131.621,247.35 129.5,246.5C 128.784,247.311 127.95,247.978 127,248.5C 124.752,247.045 122.252,246.212 119.5,246C 120.833,245.333 120.833,244.667 119.5,244C 118.167,243.667 116.833,243.333 115.5,243C 122.563,242.84 129.563,242.173 136.5,241C 126.893,238.38 117.227,236.547 107.5,235.5 Z"/></g>
<g><path style="opacity:1" fill="#083b86" d="M 84.5,270.5 C 66.5131,271.329 48.5131,271.662 30.5,271.5C 41.3407,270.833 52.3407,270.167 63.5,269.5C 59.5408,268.673 55.5408,268.173 51.5,268C 52.91,267.632 53.91,266.799 54.5,265.5C 53.8555,264.268 53.6888,262.935 54,261.5C 48.6337,258.726 44.1337,254.893 40.5,250C 40.5699,249.235 40.9033,248.735 41.5,248.5C 41.4701,249.497 41.9701,250.164 43,250.5C 45.3972,248.715 47.8972,247.049 50.5,245.5C 54.384,246.671 58.2173,247.671 62,248.5C 63.8175,246.355 65.3175,246.355 66.5,248.5C 68.2756,246.553 70.2756,246.22 72.5,247.5C 68.6497,249.959 69.3164,251.126 74.5,251C 73.572,251.388 72.9054,252.055 72.5,253C 75.4566,256.988 76.7899,261.488 76.5,266.5C 78.0603,266.519 79.5603,266.852 81,267.5C 81.9454,267.095 82.6121,266.428 83,265.5C 83.6449,266.646 84.4783,267.646 85.5,268.5C 85.1373,269.183 84.8039,269.85 84.5,270.5 Z"/></g>
<g><path style="opacity:1" fill="#172b5f" d="M 273.5,190.5 C 274.124,190.917 274.457,191.584 274.5,192.5C 273.749,196.596 272.749,200.596 271.5,204.5C 256.434,239.235 231.1,262.902 195.5,275.5C 196.551,274.778 197.218,273.778 197.5,272.5C 199.117,271.962 200.784,271.629 202.5,271.5C 202.5,270.5 202.5,269.5 202.5,268.5C 199.14,268.384 195.807,268.051 192.5,267.5C 207.02,262.311 220.353,254.978 232.5,245.5C 250.782,230.601 264.449,212.267 273.5,190.5 Z"/></g>
<g><path style="opacity:1" fill="#0b4790" d="M 67.5,235.5 C 80.8333,235.5 94.1667,235.5 107.5,235.5C 117.227,236.547 126.893,238.38 136.5,241C 129.563,242.173 122.563,242.84 115.5,243C 116.833,243.333 118.167,243.667 119.5,244C 120.833,244.667 120.833,245.333 119.5,246C 122.252,246.212 124.752,247.045 127,248.5C 127.95,247.978 128.784,247.311 129.5,246.5C 131.621,247.35 133.788,248.35 136,249.5C 136.667,248.167 137.333,248.167 138,249.5C 138.667,246.833 139.333,246.833 140,249.5C 140.667,246.833 141.333,246.833 142,249.5C 144.795,248.217 147.628,248.217 150.5,249.5C 150.376,250.107 150.043,250.44 149.5,250.5C 144.821,250.334 140.155,250.501 135.5,251C 134.663,252.011 134.33,253.178 134.5,254.5C 135.833,254.5 137.167,254.5 138.5,254.5C 138.5,258.5 140.5,260.5 144.5,260.5C 144.5,262.167 144.5,263.833 144.5,265.5C 147.733,266.306 150.733,266.639 153.5,266.5C 150.546,267.625 147.546,268.625 144.5,269.5C 132.185,270.499 119.851,270.832 107.5,270.5C 109.042,269.837 110.709,269.17 112.5,268.5C 109.103,267.828 105.77,266.995 102.5,266C 104.219,264.943 106.053,264.11 108,263.5C 110.546,265.169 112.713,264.336 114.5,261C 111.542,260.771 109.042,259.604 107,257.5C 106.667,257.833 106.333,258.167 106,258.5C 105.333,255.833 104.667,255.833 104,258.5C 101.582,256.32 98.9156,255.987 96,257.5C 91.5346,256.784 91.368,255.451 95.5,253.5C 98.8231,254.757 102.156,254.757 105.5,253.5C 107.45,252.269 108.283,250.602 108,248.5C 106.984,247.366 106.317,247.699 106,249.5C 103.931,248.736 101.764,248.236 99.5,248C 99.8333,247.667 100.167,247.333 100.5,247C 98.5273,246.505 96.5273,246.338 94.5,246.5C 94.762,247.978 94.4287,249.311 93.5,250.5C 92.5037,248.184 90.8371,246.517 88.5,245.5C 90.8442,244.663 92.8442,243.329 94.5,241.5C 92.6155,240.803 92.2822,239.803 93.5,238.5C 85.4515,236.84 77.4515,236.34 69.5,237C 68.5842,236.722 67.9175,236.222 67.5,235.5 Z"/></g>
<g><path style="opacity:1" fill="#0a3680" d="M 41.5,248.5 C 40.9033,248.735 40.5699,249.235 40.5,250C 44.1337,254.893 48.6337,258.726 54,261.5C 53.6888,262.935 53.8555,264.268 54.5,265.5C 53.91,266.799 52.91,267.632 51.5,268C 55.5408,268.173 59.5408,268.673 63.5,269.5C 52.3407,270.167 41.3407,270.833 30.5,271.5C 27.4331,271.121 26.4331,272.121 27.5,274.5C 26.1667,274.5 24.8333,274.5 23.5,274.5C 23.5,274.167 23.5,273.833 23.5,273.5C 23.5,271.167 23.5,268.833 23.5,266.5C 25.1439,266.714 26.6439,266.38 28,265.5C 28.3333,262.833 28.6667,260.167 29,257.5C 30.2673,255.186 31.434,252.852 32.5,250.5C 36.8107,248.679 40.8107,246.345 44.5,243.5C 45.1667,243.667 45.8333,243.833 46.5,244C 45.5555,246.446 43.8888,247.946 41.5,248.5 Z"/></g>
<g><path style="opacity:1" fill="#104c91" d="M 149.5,250.5 C 149.336,253.187 149.503,255.854 150,258.5C 150.308,259.308 150.808,259.975 151.5,260.5C 152.308,258.577 152.808,256.577 153,254.5C 155.71,255.914 156.71,257.914 156,260.5C 157.667,261.5 159.333,262.5 161,263.5C 162.487,262.747 162.654,261.914 161.5,261C 165.28,260.875 168.28,260.375 170.5,259.5C 172.74,258.953 175.074,258.619 177.5,258.5C 178.711,259.274 178.711,260.107 177.5,261C 180.001,262.418 179.668,263.418 176.5,264C 177.416,264.374 178.25,264.874 179,265.5C 180.466,263.675 182.299,263.175 184.5,264C 182.654,265.03 180.987,266.196 179.5,267.5C 176.97,268.776 174.303,268.776 171.5,267.5C 167.77,268.872 163.936,269.872 160,270.5C 155.273,268.521 150.44,268.687 145.5,271C 139.833,271.333 134.167,271.667 128.5,272C 141.496,272.5 154.496,272.667 167.5,272.5C 165.708,273.309 163.708,273.809 161.5,274C 116.835,274.5 72.1679,274.667 27.5,274.5C 26.4331,272.121 27.4331,271.121 30.5,271.5C 48.5131,271.662 66.5131,271.329 84.5,270.5C 92.1667,270.5 99.8333,270.5 107.5,270.5C 119.851,270.832 132.185,270.499 144.5,269.5C 147.546,268.625 150.546,267.625 153.5,266.5C 150.733,266.639 147.733,266.306 144.5,265.5C 144.5,263.833 144.5,262.167 144.5,260.5C 140.5,260.5 138.5,258.5 138.5,254.5C 137.167,254.5 135.833,254.5 134.5,254.5C 134.33,253.178 134.663,252.011 135.5,251C 140.155,250.501 144.821,250.334 149.5,250.5 Z"/></g>
<g><path style="opacity:0.004" fill="#fefffe" d="M 283.5,268.5 C 284.833,269.167 284.833,269.167 283.5,268.5 Z"/></g>
<g><path style="opacity:1" fill="#00215c" d="M 192.5,267.5 C 195.807,268.051 199.14,268.384 202.5,268.5C 202.5,269.5 202.5,270.5 202.5,271.5C 200.784,271.629 199.117,271.962 197.5,272.5C 195.832,271.156 194.165,269.823 192.5,268.5C 189.629,269.689 187.296,271.523 185.5,274C 183.5,274.333 181.5,274.667 179.5,275C 179.833,275.333 180.167,275.667 180.5,276C 174.251,276.809 168.084,276.642 162,275.5C 160.261,276.894 158.261,277.561 156,277.5C 111.897,277.336 67.7305,277.336 23.5,277.5C 23.5,276.5 23.5,275.5 23.5,274.5C 24.8333,274.5 26.1667,274.5 27.5,274.5C 72.1679,274.667 116.835,274.5 161.5,274C 163.708,273.809 165.708,273.309 167.5,272.5C 176.007,271.622 184.341,269.956 192.5,267.5 Z"/></g>
<g><path style="opacity:1" fill="#071e52" d="M 197.5,272.5 C 197.218,273.778 196.551,274.778 195.5,275.5C 183.345,280.086 170.678,282.753 157.5,283.5C 113.845,281.671 69.8447,280.837 25.5,281C 22.5924,278.93 21.9257,276.43 23.5,273.5C 23.5,273.833 23.5,274.167 23.5,274.5C 23.5,275.5 23.5,276.5 23.5,277.5C 67.7305,277.336 111.897,277.336 156,277.5C 158.261,277.561 160.261,276.894 162,275.5C 168.084,276.642 174.251,276.809 180.5,276C 180.167,275.667 179.833,275.333 179.5,275C 181.5,274.667 183.5,274.333 185.5,274C 187.296,271.523 189.629,269.689 192.5,268.5C 194.165,269.823 195.832,271.156 197.5,272.5 Z"/></g>
<g><path style="opacity:0.956" fill="#404772" d="M 32.5,250.5 C 31.434,252.852 30.2673,255.186 29,257.5C 28.6667,260.167 28.3333,262.833 28,265.5C 26.6439,266.38 25.1439,266.714 23.5,266.5C 23.5,268.833 23.5,271.167 23.5,273.5C 21.9257,276.43 22.5924,278.93 25.5,281C 69.8447,280.837 113.845,281.671 157.5,283.5C 111.84,284.585 66.1737,284.751 20.5,284C 19.5293,272.894 22.3626,262.728 29,253.5C 30.0391,252.29 31.2058,251.29 32.5,250.5 Z"/></g>
<g><path style="opacity:0.004" fill="#fefffe" d="M 322.5,286.5 C 322.5,286.833 322.5,287.167 322.5,287.5C 321.83,287.019 321.83,286.685 322.5,286.5 Z"/></g>
<g><path style="opacity:0.004" fill="#fefffe" d="M 62.5,301.5 C 63.8333,302.167 63.8333,302.167 62.5,301.5 Z"/></g>
</svg>
