<?xml version="1.0" encoding="UTF-8"?>
<!DOCTYPE svg PUBLIC "-//W3C//DTD SVG 1.1//EN" "http://www.w3.org/Graphics/SVG/1.1/DTD/svg11.dtd">
<svg xmlns="http://www.w3.org/2000/svg" version="1.1" width="360px" height="344px" style="shape-rendering:geometricPrecision; text-rendering:geometricPrecision; image-rendering:optimizeQuality; fill-rule:evenodd; clip-rule:evenodd" xmlns:xlink="http://www.w3.org/1999/xlink">
<g><path style="opacity:0.004" fill="#f4f5f4" d="M 303.5,6.5 C 304.833,7.16667 304.833,7.16667 303.5,6.5 Z"/></g>
<g><path style="opacity:0.004" fill="#f4f5f4" d="M 352.5,16.5 C 353.833,17.1667 353.833,17.1667 352.5,16.5 Z"/></g>
<g><path style="opacity:0.004" fill="#f4f5f4" d="M 154.5,21.5 C 155.833,22.1667 155.833,22.1667 154.5,21.5 Z"/></g>
<g><path style="opacity:0.004" fill="#f4f5f4" d="M 161.5,42.5 C 162.833,43.1667 162.833,43.1667 161.5,42.5 Z"/></g>
<g><path style="opacity:0.004" fill="#f4f5f4" d="M 286.5,49.5 C 287.833,50.1667 287.833,50.1667 286.5,49.5 Z"/></g>
<g><path style="opacity:0.004" fill="#f4f5f4" d="M 84.5,63.5 C 85.8333,64.1667 85.8333,64.1667 84.5,63.5 Z"/></g>
<g><path style="opacity:0.004" fill="#f4f5f4" d="M 129.5,66.5 C 130.833,67.1667 130.833,67.1667 129.5,66.5 Z"/></g>
<g><path style="opacity:0.004" fill="#f4f5f4" d="M 29.5,84.5 C 30.8333,85.1667 30.8333,85.1667 29.5,84.5 Z"/></g>
<g><path style="opacity:0.004" fill="#f4f5f4" d="M 245.5,88.5 C 246.833,89.1667 246.833,89.1667 245.5,88.5 Z"/></g>
<g><path style="opacity:0.327" fill="#daa19e" d="M 292.5,100.5 C 293.167,100.5 293.5,100.833 293.5,101.5C 293.5,101.833 293.5,102.167 293.5,102.5C 283.833,102.5 274.167,102.5 264.5,102.5C 273.833,101.833 283.167,101.167 292.5,100.5 Z"/></g>
<g><path style="opacity:0.475" fill="#caa29e" d="M 257.5,102.5 C 257.768,104.099 257.434,105.432 256.5,106.5C 256.737,105.209 256.404,104.209 255.5,103.5C 202.156,102.838 149.156,103.504 96.5,105.5C 96.5,105.833 96.5,106.167 96.5,106.5C 95.5655,105.432 95.2322,104.099 95.5,102.5C 149.5,101.167 203.5,101.167 257.5,102.5 Z"/></g>
<g><path style="opacity:0.087" fill="#f4d2ce" d="M 95.5,102.5 C 95.2322,104.099 95.5655,105.432 96.5,106.5C 149.833,106.5 203.167,106.5 256.5,106.5C 257.434,105.432 257.768,104.099 257.5,102.5C 259.088,103.635 259.421,104.969 258.5,106.5C 203.833,107.833 149.167,107.833 94.5,106.5C 93.5788,104.969 93.9122,103.635 95.5,102.5 Z"/></g>
<g><path style="opacity:0.624" fill="#97534e" d="M 255.5,103.5 C 256.404,104.209 256.737,105.209 256.5,106.5C 203.167,106.5 149.833,106.5 96.5,106.5C 96.5,106.167 96.5,105.833 96.5,105.5C 149.844,106.162 202.844,105.496 255.5,103.5 Z"/></g>
<g><path style="opacity:0.992" fill="#7a150f" d="M 255.5,103.5 C 202.844,105.496 149.844,106.162 96.5,105.5C 149.156,103.504 202.156,102.838 255.5,103.5 Z"/></g>
<g><path style="opacity:0.045" fill="#fce2dd" d="M 292.5,100.5 C 283.167,101.167 273.833,101.833 264.5,102.5C 263.833,102.5 263.5,102.833 263.5,103.5C 262.539,105.265 262.205,107.265 262.5,109.5C 207.167,109.5 151.833,109.5 96.5,109.5C 96.5,109.167 96.5,108.833 96.5,108.5C 151.167,108.5 205.833,108.5 260.5,108.5C 260.623,105.626 261.623,103.126 263.5,101C 273.161,100.5 282.828,100.334 292.5,100.5 Z"/></g>
<g><path style="opacity:0.992" fill="#842f29" d="M 90.5,109.5 C 89.5386,107.735 89.2053,105.735 89.5,103.5C 87.5168,103.157 86.1834,103.824 85.5,105.5C 77.1667,105.5 68.8333,105.5 60.5,105.5C 60.5,113.167 60.5,120.833 60.5,128.5C 62.1667,128.5 63.8333,128.5 65.5,128.5C 65.5,129.5 65.5,130.5 65.5,131.5C 62.8333,131.5 60.1667,131.5 57.5,131.5C 57.1816,121.917 57.5149,112.417 58.5,103C 69.1615,102.5 79.8281,102.333 90.5,102.5C 90.5,104.833 90.5,107.167 90.5,109.5 Z"/></g>
<g><path style="opacity:0.98" fill="#8a3025" d="M 263.5,103.5 C 265.483,103.157 266.817,103.824 267.5,105.5C 266.566,106.568 266.232,107.901 266.5,109.5C 264.897,109.312 263.563,109.812 262.5,111C 205.5,111.667 148.5,111.667 91.5,111C 90.944,110.617 90.6107,110.117 90.5,109.5C 92.5,109.5 94.5,109.5 96.5,109.5C 151.833,109.5 207.167,109.5 262.5,109.5C 262.205,107.265 262.539,105.265 263.5,103.5 Z"/></g>
<g><path style="opacity:0.996" fill="#811c15" d="M 90.5,109.5 C 90.6107,110.117 90.944,110.617 91.5,111C 148.5,111.667 205.5,111.667 262.5,111C 263.563,109.812 264.897,109.312 266.5,109.5C 272.979,110.491 279.646,110.824 286.5,110.5C 286.179,116.026 286.512,121.36 287.5,126.5C 288.568,127.434 289.901,127.768 291.5,127.5C 292.328,121.681 292.828,115.681 293,109.5C 293.832,116.815 294.332,124.148 294.5,131.5C 291.881,131.232 289.381,131.565 287,132.5C 286.17,156.004 286.337,179.337 287.5,202.5C 287.577,203.75 288.244,204.583 289.5,205C 288.244,205.417 287.577,206.25 287.5,207.5C 286.549,208.919 286.216,210.585 286.5,212.5C 285.883,212.611 285.383,212.944 285,213.5C 285.161,179.818 284.328,146.485 282.5,113.5C 211.665,113.167 140.998,113.501 70.5,114.5C 69.5028,134.993 69.1695,155.66 69.5,176.5C 68.1667,176.5 66.8333,176.5 65.5,176.5C 65.5,161.833 65.5,147.167 65.5,132.5C 65.5,132.167 65.5,131.833 65.5,131.5C 65.5,130.5 65.5,129.5 65.5,128.5C 65.5,128.167 65.5,127.833 65.5,127.5C 66.4889,122.025 66.8222,116.358 66.5,110.5C 72.8421,110.666 79.1754,110.5 85.5,110C 86.8009,108.384 86.8009,106.884 85.5,105.5C 86.1834,103.824 87.5168,103.157 89.5,103.5C 89.2053,105.735 89.5386,107.735 90.5,109.5 Z M 74.5,115.5 C 74.2172,116.289 73.7172,116.956 73,117.5C 72.8261,122.684 72.3261,127.684 71.5,132.5C 71.5,126.833 71.5,121.167 71.5,115.5C 72.5,115.5 73.5,115.5 74.5,115.5 Z"/></g>
<g><path style="opacity:0.064" fill="#f4dcd9" d="M 267.5,105.5 C 275.5,105.5 283.5,105.5 291.5,105.5C 291.5,112.833 291.5,120.167 291.5,127.5C 289.901,127.768 288.568,127.434 287.5,126.5C 287.5,126.167 287.5,125.833 287.5,125.5C 288.5,125.5 289.5,125.5 290.5,125.5C 290.5,119.167 290.5,112.833 290.5,106.5C 283.159,106.334 275.826,106.5 268.5,107C 268.167,107.333 267.833,107.667 267.5,108C 273.825,108.5 280.158,108.666 286.5,108.5C 280.021,109.491 273.354,109.824 266.5,109.5C 266.232,107.901 266.566,106.568 267.5,105.5 Z"/></g>
<g><path style="opacity:0.247" fill="#906d6a" d="M 85.5,105.5 C 86.8009,106.884 86.8009,108.384 85.5,110C 79.1754,110.5 72.8421,110.666 66.5,110.5C 66.8222,116.358 66.4889,122.025 65.5,127.5C 65.7947,125.265 65.4614,123.265 64.5,121.5C 64.3347,117.818 64.5014,114.152 65,110.5C 65.5,110 66,109.5 66.5,109C 72.6807,108.828 78.6807,108.328 84.5,107.5C 85.3382,107.158 85.6716,106.492 85.5,105.5 Z"/></g>
<g><path style="opacity:0.007" fill="#f0dcda" d="M 282.5,113.5 C 283.829,149.598 283.829,185.598 282.5,221.5C 256.995,221.831 231.661,221.498 206.5,220.5C 231.408,220.828 256.241,220.494 281,219.5C 281.5,184.835 281.667,150.168 281.5,115.5C 214.833,115.5 148.167,115.5 81.5,115.5C 79.1667,115.5 76.8333,115.5 74.5,115.5C 73.5,115.5 72.5,115.5 71.5,115.5C 71.5,121.167 71.5,126.833 71.5,132.5C 71.5,133.5 71.5,134.5 71.5,135.5C 71.8289,149.01 71.4956,162.344 70.5,175.5C 70.5,155.167 70.5,134.833 70.5,114.5C 140.998,113.501 211.665,113.167 282.5,113.5 Z M 74.5,115.5 C 74.2172,116.289 73.7172,116.956 73,117.5C 72.8261,122.684 72.3261,127.684 71.5,132.5C 71.5,126.833 71.5,121.167 71.5,115.5C 72.5,115.5 73.5,115.5 74.5,115.5 Z"/></g>
<g><path style="opacity:0.996" fill="#86312b" d="M 263.5,103.5 C 263.5,102.833 263.833,102.5 264.5,102.5C 274.167,102.5 283.833,102.5 293.5,102.5C 294.117,102.611 294.617,102.944 295,103.5C 295.824,113.009 295.658,122.343 294.5,131.5C 294.332,124.148 293.832,116.815 293,109.5C 292.828,115.681 292.328,121.681 291.5,127.5C 291.5,120.167 291.5,112.833 291.5,105.5C 283.5,105.5 275.5,105.5 267.5,105.5C 266.817,103.824 265.483,103.157 263.5,103.5 Z"/></g>
<g><path style="opacity:0.149" fill="#cbbab7" d="M 74.5,115.5 C 76.8333,115.5 79.1667,115.5 81.5,115.5C 84.6414,116.321 87.9748,116.821 91.5,117C 92.8009,118.616 92.8009,120.116 91.5,121.5C 91.7373,120.209 91.404,119.209 90.5,118.5C 85.3497,117.349 80.0164,117.183 74.5,118C 73.5251,123.741 73.1918,129.575 73.5,135.5C 73.5,135.833 73.5,136.167 73.5,136.5C 72.8333,136.167 72.1667,135.833 71.5,135.5C 71.5,134.5 71.5,133.5 71.5,132.5C 72.3261,127.684 72.8261,122.684 73,117.5C 73.7172,116.956 74.2172,116.289 74.5,115.5 Z"/></g>
<g><path style="opacity:0.435" fill="#c68983" d="M 286.5,108.5 C 287.489,113.975 287.822,119.642 287.5,125.5C 287.5,125.833 287.5,126.167 287.5,126.5C 286.512,121.36 286.179,116.026 286.5,110.5C 279.646,110.824 272.979,110.491 266.5,109.5C 273.354,109.824 280.021,109.491 286.5,108.5 Z"/></g>
<g><path style="opacity:0.158" fill="#f7dddc" d="M 85.5,105.5 C 85.6716,106.492 85.3382,107.158 84.5,107.5C 77.0182,106.508 69.3516,106.175 61.5,106.5C 61.5,113.167 61.5,119.833 61.5,126.5C 62.5,126.5 63.5,126.5 64.5,126.5C 64.5,124.833 64.5,123.167 64.5,121.5C 65.4614,123.265 65.7947,125.265 65.5,127.5C 65.5,127.833 65.5,128.167 65.5,128.5C 63.8333,128.5 62.1667,128.5 60.5,128.5C 60.5,120.833 60.5,113.167 60.5,105.5C 68.8333,105.5 77.1667,105.5 85.5,105.5 Z"/></g>
<g><path style="opacity:0.007" fill="#fbf4f3" d="M 279.5,135.5 C 279.822,129.642 279.489,123.975 278.5,118.5C 273.35,117.349 268.016,117.183 262.5,118C 261.663,119.011 261.33,120.178 261.5,121.5C 260.199,120.116 260.199,118.616 261.5,117C 267.5,116.333 273.5,116.333 279.5,117C 280.826,123.266 280.826,129.432 279.5,135.5 Z"/></g>
<g><path style="opacity:0.976" fill="#862b22" d="M 278.5,118.5 C 278.5,124.5 278.5,130.5 278.5,136.5C 277.5,136.5 276.5,136.5 275.5,136.5C 275.819,131.637 275.486,126.97 274.5,122.5C 270.366,121.515 266.032,121.182 261.5,121.5C 261.33,120.178 261.663,119.011 262.5,118C 268.016,117.183 273.35,117.349 278.5,118.5 Z"/></g>
<g><path style="opacity:0.469" fill="#d8b5b0" d="M 90.5,118.5 C 91.404,119.209 91.7373,120.209 91.5,121.5C 91.3893,122.117 91.056,122.617 90.5,123C 86.5138,123.499 82.5138,123.666 78.5,123.5C 78.6657,127.846 78.499,132.179 78,136.5C 76.3845,137.801 74.8845,137.801 73.5,136.5C 73.5,136.167 73.5,135.833 73.5,135.5C 74.8333,135.5 76.1667,135.5 77.5,135.5C 77.5,130.833 77.5,126.167 77.5,121.5C 81.8333,121.5 86.1667,121.5 90.5,121.5C 90.5,120.5 90.5,119.5 90.5,118.5 Z"/></g>
<g><path style="opacity:0.01" fill="#f4e7e4" d="M 261.5,121.5 C 266.032,121.182 270.366,121.515 274.5,122.5C 274.5,127.167 274.5,131.833 274.5,136.5C 273.515,132.366 273.182,128.032 273.5,123.5C 269.818,123.665 266.152,123.499 262.5,123C 261.944,122.617 261.611,122.117 261.5,121.5 Z"/></g>
<g><path style="opacity:0.237" fill="#edd1ce" d="M 96.5,108.5 C 96.5,108.833 96.5,109.167 96.5,109.5C 94.5,109.5 92.5,109.5 90.5,109.5C 90.5,107.167 90.5,104.833 90.5,102.5C 79.8281,102.333 69.1615,102.5 58.5,103C 57.5149,112.417 57.1816,121.917 57.5,131.5C 60.1667,131.5 62.8333,131.5 65.5,131.5C 65.5,131.833 65.5,132.167 65.5,132.5C 65.1667,132.5 64.8333,132.5 64.5,132.5C 61.2893,132.988 58.456,132.321 56,130.5C 55.3333,121.5 55.3333,112.5 56,103.5C 56.3742,102.584 56.8742,101.75 57.5,101C 68.5,100.333 79.5,100.333 90.5,101C 91.435,103.381 91.7683,105.881 91.5,108.5C 93.1667,108.5 94.8333,108.5 96.5,108.5 Z"/></g>
<g><path style="opacity:1" fill="#8b2820" d="M 90.5,118.5 C 90.5,119.5 90.5,120.5 90.5,121.5C 86.1667,121.5 81.8333,121.5 77.5,121.5C 77.5,126.167 77.5,130.833 77.5,135.5C 76.1667,135.5 74.8333,135.5 73.5,135.5C 73.1918,129.575 73.5251,123.741 74.5,118C 80.0164,117.183 85.3497,117.349 90.5,118.5 Z"/></g>
<g><path style="opacity:0.333" fill="#d5a9a5" d="M 278.5,118.5 C 279.489,123.975 279.822,129.642 279.5,135.5C 278.423,138.972 276.756,139.305 274.5,136.5C 274.5,131.833 274.5,127.167 274.5,122.5C 275.486,126.97 275.819,131.637 275.5,136.5C 276.5,136.5 277.5,136.5 278.5,136.5C 278.5,130.5 278.5,124.5 278.5,118.5 Z"/></g>
<g><path style="opacity:0.004" fill="#f4f5f4" d="M 189.5,145.5 C 190.833,146.167 190.833,146.167 189.5,145.5 Z"/></g>
<g><path style="opacity:0.004" fill="#f4f5f4" d="M 170.5,149.5 C 171.833,150.167 171.833,150.167 170.5,149.5 Z"/></g>
<g><path style="opacity:0.323" fill="#d4a8a6" d="M 70.5,114.5 C 70.5,134.833 70.5,155.167 70.5,175.5C 69.4908,178.166 67.8242,178.833 65.5,177.5C 65.5,177.167 65.5,176.833 65.5,176.5C 66.8333,176.5 68.1667,176.5 69.5,176.5C 69.1695,155.66 69.5028,134.993 70.5,114.5 Z"/></g>
<g><path style="opacity:0.395" fill="#d9aca9" d="M 293.5,102.5 C 293.5,102.167 293.5,101.833 293.5,101.5C 294.496,101.414 295.329,101.748 296,102.5C 296.5,112.494 296.666,122.494 296.5,132.5C 293.545,133.159 290.545,133.492 287.5,133.5C 287.5,156.167 287.5,178.833 287.5,201.5C 290.249,201.274 292.916,201.607 295.5,202.5C 296.498,212.144 296.832,221.81 296.5,231.5C 296.167,231.5 295.833,231.5 295.5,231.5C 295.666,222.494 295.5,213.494 295,204.5C 292.564,203.645 290.064,202.979 287.5,202.5C 286.337,179.337 286.17,156.004 287,132.5C 289.381,131.565 291.881,131.232 294.5,131.5C 295.658,122.343 295.824,113.009 295,103.5C 294.617,102.944 294.117,102.611 293.5,102.5 Z"/></g>
<g><path style="opacity:0.004" fill="#f4f5f4" d="M 356.5,154.5 C 357.833,155.167 357.833,155.167 356.5,154.5 Z"/></g>
<g><path style="opacity:0.004" fill="#f4f5f4" d="M 173.5,157.5 C 174.833,158.167 174.833,158.167 173.5,157.5 Z"/></g>
<g><path style="opacity:0.004" fill="#f4f5f4" d="M 258.5,157.5 C 259.833,158.167 259.833,158.167 258.5,157.5 Z"/></g>
<g><path style="opacity:0.165" fill="#b2a29f" d="M 64.5,132.5 C 64.8333,132.5 65.1667,132.5 65.5,132.5C 65.5,147.167 65.5,161.833 65.5,176.5C 65.5,176.833 65.5,177.167 65.5,177.5C 64.7784,177.082 64.2784,176.416 64,175.5C 61.6667,178.167 59.3333,178.167 57,175.5C 56.3333,163.167 56.3333,150.833 57,138.5C 57.6734,135.417 59.5067,134.25 62.5,135C 63.2931,138.411 63.7931,141.911 64,145.5C 64.499,141.179 64.6657,136.846 64.5,132.5 Z"/></g>
<g><path style="opacity:0.748" fill="#a46862" d="M 61.5,176.5 C 60.8333,124.5 60.1667,124.5 59.5,176.5C 58.5044,163.344 58.1711,150.01 58.5,136.5C 59.8333,136.5 61.1667,136.5 62.5,136.5C 62.8289,150.01 62.4956,163.344 61.5,176.5 Z"/></g>
<g><path style="opacity:0.995" fill="#771511" d="M 61.5,176.5 C 60.8333,176.5 60.1667,176.5 59.5,176.5C 60.1667,124.5 60.8333,124.5 61.5,176.5 Z"/></g>
<g><path style="opacity:0.004" fill="#f4f5f4" d="M 125.5,165.5 C 126.833,166.167 126.833,166.167 125.5,165.5 Z"/></g>
<g><path style="opacity:0.193" fill="#bba6a5" d="M 291.5,134.5 C 293.017,134.511 294.184,135.177 295,136.5C 295.667,157.167 295.667,177.833 295,198.5C 292.888,200.922 290.888,200.922 289,198.5C 288.333,178.167 288.333,157.833 289,137.5C 289.698,136.309 290.531,135.309 291.5,134.5 Z"/></g>
<g><path style="opacity:1" fill="#7d1511" d="M 293.5,137.5 C 293.5,157.5 293.5,177.5 293.5,197.5C 292.168,187.856 291.501,177.856 291.5,167.5C 291.501,157.144 292.168,147.144 293.5,137.5 Z"/></g>
<g><path style="opacity:0.901" fill="#8e4949" d="M 293.5,137.5 C 292.168,147.144 291.501,157.144 291.5,167.5C 291.501,177.856 292.168,187.856 293.5,197.5C 292.791,198.404 291.791,198.737 290.5,198.5C 290.5,177.833 290.5,157.167 290.5,136.5C 291.791,136.263 292.791,136.596 293.5,137.5 Z"/></g>
<g><path style="opacity:0.004" fill="#f4f5f4" d="M 156.5,167.5 C 157.833,168.167 157.833,168.167 156.5,167.5 Z"/></g>
<g><path style="opacity:0.004" fill="#f4f5f4" d="M 168.5,174.5 C 169.833,175.167 169.833,175.167 168.5,174.5 Z"/></g>
<g><path style="opacity:0.004" fill="#f4f5f4" d="M 193.5,177.5 C 194.833,178.167 194.833,178.167 193.5,177.5 Z"/></g>
<g><path style="opacity:0.345" fill="#d8c2bf" d="M 115.5,206.5 C 108.612,198.812 100.612,197.478 91.5,202.5C 84.599,211.147 84.9324,219.48 92.5,227.5C 90.629,227.141 89.129,226.141 88,224.5C 81.9714,213.253 84.4714,204.419 95.5,198C 104.772,195.144 111.439,197.977 115.5,206.5 Z"/></g>
<g><path style="opacity:0.969" fill="#7e3937" d="M 115.5,206.5 C 116.55,211.114 116.717,215.78 116,220.5C 112.503,227.498 108.503,234.165 104,240.5C 103.878,238.831 104.212,237.165 105,235.5C 108,230.5 111,225.5 114,220.5C 114.667,217.167 114.667,213.833 114,210.5C 113.015,209.186 111.848,208.186 110.5,207.5C 111.043,207.44 111.376,207.107 111.5,206.5C 110.687,205.186 109.687,204.019 108.5,203C 95.9021,198.951 89.4021,203.451 89,216.5C 91.0595,225.287 96.5595,228.62 105.5,226.5C 103.809,231.547 101.309,236.213 98,240.5C 97.9605,238.276 97.7938,236.276 97.5,234.5C 97.5,233.833 97.8333,233.5 98.5,233.5C 100.532,232.952 101.532,231.619 101.5,229.5C 98.4021,229.244 95.4021,228.578 92.5,227.5C 84.9324,219.48 84.599,211.147 91.5,202.5C 100.612,197.478 108.612,198.812 115.5,206.5 Z M 110.5,221.5 C 109.928,223.255 109.094,224.922 108,226.5C 107.308,225.975 106.808,225.308 106.5,224.5C 107.852,223.476 109.185,222.476 110.5,221.5 Z M 95.5,216.5 C 96.1246,209.109 99.6246,207.109 106,210.5C 106.866,219.949 103.366,221.949 95.5,216.5 Z"/></g>
<g><path style="opacity:0.153" fill="#c9b4b1" d="M 54.5,199.5 C 55.0431,199.56 55.3764,199.893 55.5,200.5C 50.3333,210.167 45.1667,219.833 40,229.5C 39.51,230.793 39.3433,232.127 39.5,233.5C 39.1667,233.5 38.8333,233.5 38.5,233.5C 37.5876,232.262 37.4209,230.928 38,229.5C 43.3606,219.336 48.8606,209.336 54.5,199.5 Z"/></g>
<g><path style="opacity:0.098" fill="#edd9d8" d="M 279.5,217.5 C 273.355,218.49 267.022,218.823 260.5,218.5C 259.578,214.518 261.078,212.184 265,211.5C 267.719,212.444 270.552,212.777 273.5,212.5C 273.334,208.486 273.501,204.486 274,200.5C 276,197.833 278,197.833 280,200.5C 280.818,206.349 280.652,212.015 279.5,217.5 Z"/></g>
<g><path style="opacity:0.992" fill="#7d1712" d="M 278.5,201.5 C 278.5,206.5 278.5,211.5 278.5,216.5C 274.033,216.867 269.7,216.367 265.5,215C 268.695,214.819 271.695,214.319 274.5,213.5C 275.324,209.688 275.824,205.688 276,201.5C 276.977,200.226 277.811,200.226 278.5,201.5 Z"/></g>
<g><path style="opacity:0.81" fill="#9c4f4a" d="M 278.5,201.5 C 279.488,206.64 279.821,211.974 279.5,217.5C 273.5,217.5 267.5,217.5 261.5,217.5C 261.33,216.178 261.663,215.011 262.5,214C 266.486,213.501 270.486,213.334 274.5,213.5C 271.695,214.319 268.695,214.819 265.5,215C 269.7,216.367 274.033,216.867 278.5,216.5C 278.5,211.5 278.5,206.5 278.5,201.5 Z"/></g>
<g><path style="opacity:0.839" fill="#89322c" d="M 287.5,202.5 C 290.064,202.979 292.564,203.645 295,204.5C 295.5,213.494 295.666,222.494 295.5,231.5C 295.672,232.492 295.338,233.158 294.5,233.5C 294.5,224.167 294.5,214.833 294.5,205.5C 292.821,205.285 291.821,205.952 291.5,207.5C 290.167,207.5 288.833,207.5 287.5,207.5C 287.577,206.25 288.244,205.417 289.5,205C 288.244,204.583 287.577,203.75 287.5,202.5 Z"/></g>
<g><path style="opacity:0.361" fill="#936865" d="M 124.5,221.5 C 151.662,220.502 178.995,220.169 206.5,220.5C 231.661,221.498 256.995,221.831 282.5,221.5C 257.672,222.498 232.672,222.831 207.5,222.5C 180.167,222.5 152.833,222.5 125.5,222.5C 125.5,221.833 125.167,221.5 124.5,221.5 Z"/></g>
<g><path style="opacity:0.992" fill="#821f17" d="M 282.5,113.5 C 284.328,146.485 285.161,179.818 285,213.5C 285.383,212.944 285.883,212.611 286.5,212.5C 286.5,216.833 286.5,221.167 286.5,225.5C 279.646,225.176 272.979,225.509 266.5,226.5C 266.5,227.5 266.5,228.5 266.5,229.5C 274.65,230.493 282.983,230.826 291.5,230.5C 291.5,222.833 291.5,215.167 291.5,207.5C 291.821,205.952 292.821,205.285 294.5,205.5C 294.5,214.833 294.5,224.167 294.5,233.5C 284.347,234.494 274.014,234.828 263.5,234.5C 263.806,231.615 263.473,228.948 262.5,226.5C 262.5,225.833 262.167,225.5 261.5,225.5C 216.669,224.667 171.669,224.167 126.5,224C 153.67,223.832 180.67,223.332 207.5,222.5C 232.672,222.831 257.672,222.498 282.5,221.5C 283.829,185.598 283.829,149.598 282.5,113.5 Z M 290.5,228.5 C 282.826,228.666 275.159,228.5 267.5,228C 271.356,227.823 275.023,227.323 278.5,226.5C 281.5,226.5 284.5,226.5 287.5,226.5C 287.5,220.5 287.5,214.5 287.5,208.5C 288.5,208.5 289.5,208.5 290.5,208.5C 290.118,215.016 290.118,221.682 290.5,228.5 Z"/></g>
<g><path style="opacity:0.224" fill="#f1ccca" d="M 287.5,207.5 C 288.833,207.5 290.167,207.5 291.5,207.5C 291.5,215.167 291.5,222.833 291.5,230.5C 282.983,230.826 274.65,230.493 266.5,229.5C 274.684,229.826 282.684,229.492 290.5,228.5C 290.118,221.682 290.118,215.016 290.5,208.5C 289.5,208.5 288.5,208.5 287.5,208.5C 287.5,214.5 287.5,220.5 287.5,226.5C 284.5,226.5 281.5,226.5 278.5,226.5C 274.5,226.5 270.5,226.5 266.5,226.5C 272.979,225.509 279.646,225.176 286.5,225.5C 286.5,221.167 286.5,216.833 286.5,212.5C 286.216,210.585 286.549,208.919 287.5,207.5 Z"/></g>
<g><path style="opacity:0.955" fill="#7d1c17" d="M 125.5,222.5 C 152.833,222.5 180.167,222.5 207.5,222.5C 180.67,223.332 153.67,223.832 126.5,224C 171.669,224.167 216.669,224.667 261.5,225.5C 216.167,225.5 170.833,225.5 125.5,225.5C 125.5,224.5 125.5,223.5 125.5,222.5 Z"/></g>
<g><path style="opacity:0.537" fill="#a96e69" d="M 125.5,222.5 C 125.5,223.5 125.5,224.5 125.5,225.5C 170.833,225.5 216.167,225.5 261.5,225.5C 262.167,225.5 262.5,225.833 262.5,226.5C 216.5,226.5 170.5,226.5 124.5,226.5C 124.232,224.901 124.566,223.568 125.5,222.5 Z"/></g>
<g><path style="opacity:0.012" fill="#f4eae9" d="M 124.5,221.5 C 125.167,221.5 125.5,221.833 125.5,222.5C 124.566,223.568 124.232,224.901 124.5,226.5C 170.5,226.5 216.5,226.5 262.5,226.5C 263.473,228.948 263.806,231.615 263.5,234.5C 274.014,234.828 284.347,234.494 294.5,233.5C 295.338,233.158 295.672,232.492 295.5,231.5C 295.833,231.5 296.167,231.5 296.5,231.5C 296.67,232.822 296.337,233.989 295.5,235C 284.5,235.667 273.5,235.667 262.5,235C 261.565,232.619 261.232,230.119 261.5,227.5C 260.167,227.5 258.833,227.5 257.5,227.5C 213.167,227.5 168.833,227.5 124.5,227.5C 122.006,225.406 122.006,223.406 124.5,221.5 Z"/></g>
<g><path style="opacity:0.31" fill="#977674" d="M 124.5,228.5 C 124.5,228.167 124.5,227.833 124.5,227.5C 168.833,227.5 213.167,227.5 257.5,227.5C 258.742,229.611 258.742,231.611 257.5,233.5C 212.997,233.832 168.664,233.499 124.5,232.5C 124.833,232.5 125.167,232.5 125.5,232.5C 169.167,232.5 212.833,232.5 256.5,232.5C 257.404,231.791 257.737,230.791 257.5,229.5C 240.833,229.5 224.167,229.5 207.5,229.5C 180.005,228.502 152.338,228.169 124.5,228.5 Z"/></g>
<g><path style="opacity:0.012" fill="#fdfbf9" d="M 266.5,226.5 C 270.5,226.5 274.5,226.5 278.5,226.5C 275.023,227.323 271.356,227.823 267.5,228C 275.159,228.5 282.826,228.666 290.5,228.5C 282.684,229.492 274.684,229.826 266.5,229.5C 266.5,228.5 266.5,227.5 266.5,226.5 Z"/></g>
<g><path style="opacity:0.054" fill="#e5d0ce" d="M 56.5,197.5 C 58.4109,197.574 59.5776,198.574 60,200.5C 61.5088,198.081 63.6755,197.081 66.5,197.5C 66.7678,199.099 66.4345,200.432 65.5,201.5C 62.3279,208.696 58.6613,215.696 54.5,222.5C 56.0453,223.452 57.712,223.785 59.5,223.5C 58.828,220.092 59.828,217.425 62.5,215.5C 63.4776,215.977 64.3109,216.643 65,217.5C 66.3374,216.235 67.8374,215.735 69.5,216C 70.435,218.381 70.7683,220.881 70.5,223.5C 73.2327,223.196 74.8994,224.363 75.5,227C 74.8041,229.118 74.6374,231.284 75,233.5C 73.8904,235.037 72.3904,235.703 70.5,235.5C 70.7564,237.792 70.4231,239.959 69.5,242C 67.6332,242.711 66.1332,242.211 65,240.5C 63.4506,243.003 61.7839,243.003 60,240.5C 59.879,238.273 59.0456,236.44 57.5,235C 50.9867,234.828 44.6534,234.328 38.5,233.5C 38.8333,233.5 39.1667,233.5 39.5,233.5C 46.8333,233.5 54.1667,233.5 61.5,233.5C 61.1924,235.924 61.5258,238.257 62.5,240.5C 63.4841,237.572 63.8174,234.572 63.5,231.5C 56.6046,231.15 49.9379,230.15 43.5,228.5C 47.7743,219.723 52.2743,211.056 57,202.5C 57.3845,200.803 57.2178,199.137 56.5,197.5 Z M 66.5,230.5 C 64.7748,230.157 64.2748,229.157 65,227.5C 66.0386,228.244 66.5386,229.244 66.5,230.5 Z M 45.5,226.5 C 48.3771,228.846 48.0437,229.679 44.5,229C 45.2524,228.329 45.5858,227.496 45.5,226.5 Z"/></g>
<g><path style="opacity:0.963" fill="#7b2b22" d="M 48.5,223.5 C 49.1667,223.167 49.8333,222.833 50.5,222.5C 51.1667,223.5 51.8333,224.5 52.5,225.5C 55.5,225.5 58.5,225.5 61.5,225.5C 61.1866,222.753 61.52,220.086 62.5,217.5C 63.487,220.768 63.8204,224.102 63.5,227.5C 58.5,227.5 53.5,227.5 48.5,227.5C 48.5,226.167 48.5,224.833 48.5,223.5 Z"/></g>
<g><path style="opacity:0.976" fill="#894742" d="M 66.5,217.5 C 67.5,217.5 68.5,217.5 69.5,217.5C 69.5,220.167 69.5,222.833 69.5,225.5C 70.9778,225.238 72.3112,225.571 73.5,226.5C 71.2573,227.474 68.924,227.808 66.5,227.5C 66.5,224.167 66.5,220.833 66.5,217.5 Z"/></g>
<g><path style="opacity:0.945" fill="#82403d" d="M 65.5,201.5 C 62.1931,205.426 59.3597,209.76 57,214.5C 54.9281,217.971 53.4281,221.638 52.5,225.5C 51.8333,224.5 51.1667,223.5 50.5,222.5C 53.9581,214.799 58.2915,206.966 63.5,199C 65.0613,198.812 65.728,199.645 65.5,201.5 Z"/></g>
<g><path style="opacity:0.911" fill="#8f3a35" d="M 207.5,229.5 C 224.167,229.5 240.833,229.5 257.5,229.5C 257.737,230.791 257.404,231.791 256.5,232.5C 235.01,231.167 213.177,230.5 191,230.5C 168.823,230.5 146.99,231.167 125.5,232.5C 125.167,232.5 124.833,232.5 124.5,232.5C 124.5,231.5 124.5,230.5 124.5,229.5C 152.167,229.5 179.833,229.5 207.5,229.5 Z"/></g>
<g><path style="opacity:0.553" fill="#bb8787" d="M 43.5,228.5 C 49.9379,230.15 56.6046,231.15 63.5,231.5C 56.5,231.5 49.5,231.5 42.5,231.5C 42.2627,230.209 42.596,229.209 43.5,228.5 Z"/></g>
<g><path style="opacity:0.992" fill="#771711" d="M 256.5,232.5 C 212.833,232.5 169.167,232.5 125.5,232.5C 146.99,231.167 168.823,230.5 191,230.5C 213.177,230.5 235.01,231.167 256.5,232.5 Z"/></g>
<g><path style="opacity:0.984" fill="#772b23" d="M 73.5,231.5 C 72.5525,232.978 71.2191,233.978 69.5,234.5C 68.6981,235.952 68.1981,237.618 68,239.5C 67.5026,236.854 67.3359,234.187 67.5,231.5C 69.5,231.5 71.5,231.5 73.5,231.5 Z"/></g>
<g><path style="opacity:0.176" fill="#f2d0cc" d="M 92.5,227.5 C 95.4021,228.578 98.4021,229.244 101.5,229.5C 101.532,231.619 100.532,232.952 98.5,233.5C 98.4142,232.504 98.7476,231.671 99.5,231C 96.7187,230.478 94.3854,229.311 92.5,227.5 Z"/></g>
<g><path style="opacity:0.004" fill="#f4f5f4" d="M 21.5,232.5 C 22.8333,233.167 22.8333,233.167 21.5,232.5 Z"/></g>
<g><path style="opacity:0.123" fill="#f9ece9" d="M 124.5,228.5 C 152.338,228.169 180.005,228.502 207.5,229.5C 179.833,229.5 152.167,229.5 124.5,229.5C 124.5,230.5 124.5,231.5 124.5,232.5C 168.664,233.499 212.997,233.832 257.5,233.5C 212.998,234.831 168.331,234.831 123.5,233.5C 121.991,231.38 122.324,229.713 124.5,228.5 Z"/></g>
<g><path style="opacity:0.898" fill="#803935" d="M 56.5,197.5 C 57.2178,199.137 57.3845,200.803 57,202.5C 52.2743,211.056 47.7743,219.723 43.5,228.5C 42.596,229.209 42.2627,230.209 42.5,231.5C 49.5,231.5 56.5,231.5 63.5,231.5C 63.8174,234.572 63.4841,237.572 62.5,240.5C 61.5258,238.257 61.1924,235.924 61.5,233.5C 54.1667,233.5 46.8333,233.5 39.5,233.5C 39.3433,232.127 39.51,230.793 40,229.5C 45.1667,219.833 50.3333,210.167 55.5,200.5C 55.3764,199.893 55.0431,199.56 54.5,199.5C 54.8333,198.5 55.5,197.833 56.5,197.5 Z"/></g>
<g><path style="opacity:0.004" fill="#f4f5f4" d="M 94.5,234.5 C 95.8333,235.167 95.8333,235.167 94.5,234.5 Z"/></g>
<g><path style="opacity:0.616" fill="#9c716f" d="M 66.5,230.5 C 69.0593,230.198 71.3926,230.532 73.5,231.5C 71.5,231.5 69.5,231.5 67.5,231.5C 67.3359,234.187 67.5026,236.854 68,239.5C 68.1981,237.618 68.6981,235.952 69.5,234.5C 69.5,236.5 69.5,238.5 69.5,240.5C 68.5,240.5 67.5,240.5 66.5,240.5C 66.5,237.167 66.5,233.833 66.5,230.5 Z"/></g>
<g><path style="opacity:0.176" fill="#e6d2cf" d="M 110.5,207.5 C 111.848,208.186 113.015,209.186 114,210.5C 114.667,213.833 114.667,217.167 114,220.5C 111,225.5 108,230.5 105,235.5C 104.212,237.165 103.878,238.831 104,240.5C 108.503,234.165 112.503,227.498 116,220.5C 116.717,215.78 116.55,211.114 115.5,206.5C 116.117,206.611 116.617,206.944 117,207.5C 119.085,214.089 118.419,220.422 115,226.5C 111.708,231.583 108.541,236.75 105.5,242C 103.112,242.865 101.612,242.032 101,239.5C 98.9757,243.119 96.8091,243.286 94.5,240C 95.6394,238.22 96.6394,236.386 97.5,234.5C 97.7938,236.276 97.9605,238.276 98,240.5C 101.309,236.213 103.809,231.547 105.5,226.5C 96.5595,228.62 91.0595,225.287 89,216.5C 89.4021,203.451 95.9021,198.951 108.5,203C 109.687,204.019 110.687,205.186 111.5,206.5C 111.376,207.107 111.043,207.44 110.5,207.5 Z M 110.5,221.5 C 109.185,222.476 107.852,223.476 106.5,224.5C 106.808,225.308 107.308,225.975 108,226.5C 109.094,224.922 109.928,223.255 110.5,221.5 Z M 95.5,216.5 C 103.366,221.949 106.866,219.949 106,210.5C 99.6246,207.109 96.1246,209.109 95.5,216.5 Z"/></g>
<g><path style="opacity:0.902" fill="#7f3832" d="M 97.5,204.5 C 110.437,204.926 113.771,210.759 107.5,222C 96.5882,225.745 91.4215,221.912 92,210.5C 93.7248,208.391 95.5581,206.391 97.5,204.5 Z M 95.5,216.5 C 103.366,221.949 106.866,219.949 106,210.5C 99.6246,207.109 96.1246,209.109 95.5,216.5 Z"/></g>
<g><path style="opacity:0.2" fill="#cdb1ae" d="M 95.5,216.5 C 94.0373,208.816 97.3706,205.982 105.5,208C 109.107,211.616 109.441,215.616 106.5,220C 102.846,222.14 99.346,221.973 96,219.5C 95.5172,218.552 95.3505,217.552 95.5,216.5 Z M 95.5,216.5 C 103.366,221.949 106.866,219.949 106,210.5C 99.6246,207.109 96.1246,209.109 95.5,216.5 Z"/></g>
<g><path style="opacity:0.004" fill="#f4f5f4" d="M 29.5,247.5 C 30.8333,248.167 30.8333,248.167 29.5,247.5 Z"/></g>
<g><path style="opacity:0.004" fill="#f4f5f4" d="M 202.5,248.5 C 203.833,249.167 203.833,249.167 202.5,248.5 Z"/></g>
<g><path style="opacity:0.004" fill="#f4f5f4" d="M 344.5,270.5 C 345.833,271.167 345.833,271.167 344.5,270.5 Z"/></g>
<g><path style="opacity:0.004" fill="#f4f5f4" d="M 160.5,276.5 C 161.833,277.167 161.833,277.167 160.5,276.5 Z"/></g>
<g><path style="opacity:0.004" fill="#f4f5f4" d="M 316.5,278.5 C 317.833,279.167 317.833,279.167 316.5,278.5 Z"/></g>
<g><path style="opacity:0.004" fill="#f4f5f4" d="M 357.5,284.5 C 358.833,285.167 358.833,285.167 357.5,284.5 Z"/></g>
<g><path style="opacity:0.004" fill="#f4f5f4" d="M 178.5,289.5 C 179.833,290.167 179.833,290.167 178.5,289.5 Z"/></g>
<g><path style="opacity:0.004" fill="#f4f5f4" d="M 346.5,289.5 C 347.833,290.167 347.833,290.167 346.5,289.5 Z"/></g>
<g><path style="opacity:0.004" fill="#f4f5f4" d="M 31.5,300.5 C 32.8333,301.167 32.8333,301.167 31.5,300.5 Z"/></g>
<g><path style="opacity:0.004" fill="#f4f5f4" d="M 354.5,315.5 C 355.833,316.167 355.833,316.167 354.5,315.5 Z"/></g>
<g><path style="opacity:0.004" fill="#f4f5f4" d="M 268.5,319.5 C 269.833,320.167 269.833,320.167 268.5,319.5 Z"/></g>
<g><path style="opacity:0.004" fill="#f4f5f4" d="M 298.5,324.5 C 299.833,325.167 299.833,325.167 298.5,324.5 Z"/></g>
<g><path style="opacity:0.004" fill="#f4f5f4" d="M 302.5,328.5 C 303.833,329.167 303.833,329.167 302.5,328.5 Z"/></g>
<g><path style="opacity:0.004" fill="#f4f5f4" d="M 129.5,333.5 C 130.833,334.167 130.833,334.167 129.5,333.5 Z"/></g>
<g><path style="opacity:0.004" fill="#f4f5f4" d="M 352.5,334.5 C 353.833,335.167 353.833,335.167 352.5,334.5 Z"/></g>
<g><path style="opacity:0.004" fill="#f4f5f4" d="M 237.5,337.5 C 238.833,338.167 238.833,338.167 237.5,337.5 Z"/></g>
</svg>
